<svg width="522" height="506" viewBox="0 0 522 506" fill="none" xmlns="http://www.w3.org/2000/svg">
<path d="M40.4956 309.302C36.7157 320.167 33.9555 331.361 32.2507 342.739C30.4909 352.157 28.9918 360.598 26.841 368.518C24.3643 377.61 21.1706 387.583 18.0747 397.132C4.55044 439.27 -10.7661 487.047 19.639 501.843C22.8734 503.338 26.407 504.074 29.9695 503.994C42.3205 503.994 58.0933 497.02 74.5505 489.752L77.5814 488.416C83.3495 485.907 89.3458 483.299 95.342 480.986C111.116 475.073 127.287 470.281 143.736 466.646C170.947 460.128 194.444 454.294 219.667 434.349C244.239 414.795 260.924 387.094 277.023 360.272C299.574 322.761 320.855 287.368 360.613 276.646C375.44 272.638 392.843 273.061 409.658 273.387H410.245C428.266 273.876 446.874 274.398 462.093 269.314C478.062 263.936 515.604 247.022 519.808 206.317C521.176 192.988 515.017 180.767 508.499 167.796L508.011 166.883C502.764 156.748 496.833 145.276 494.975 132.729C492.727 118.096 497.745 104.148 502.601 90.6554L502.764 90.1992C510.031 70.2867 516.875 51.4497 503.448 29.5492C488.979 6.05187 457.172 -2.38894 406.204 4.12905C400.566 6.21481 394.7 8.26799 388.997 10.2234L383.066 12.2765C356.832 21.3366 329.686 30.7225 307.95 46.9849C301.109 52.5771 294.764 58.7486 288.983 65.4308L286.572 68.038C280.691 74.6324 274.388 80.8376 267.703 86.6143C256.363 95.5541 244.283 103.513 231.595 110.405C218.147 117.753 205.31 126.167 193.205 135.564C171.338 153.521 144.323 180.343 113.331 215.247C108.084 221.113 102.772 226.947 97.4603 232.748C73.801 258.624 51.4128 282.904 40.4956 309.302ZM115.156 217.007C146.18 182.168 172.968 155.477 194.77 137.585C206.761 128.263 219.478 119.915 232.801 112.621C245.621 105.672 257.821 97.6367 269.267 88.6023C276.043 82.7771 282.423 76.5059 288.364 69.8304L290.775 67.2232C296.463 60.6546 302.699 54.5818 309.416 49.0706C330.859 33.0364 357.81 23.7156 384.076 14.6556L389.812 12.6676C395.515 10.6796 401.413 8.65907 406.758 6.6059C416.774 5.27527 426.864 4.57863 436.968 4.52014C469.263 4.52014 490.445 13.2542 501.33 30.8854C514.137 51.8082 507.489 69.9934 500.385 89.5474V89.8407C495.399 103.626 490.282 117.868 492.596 133.12C494.584 146.156 500.613 157.758 505.925 168.024L506.414 168.937C512.768 181.549 518.765 193.477 517.461 206.089C513.388 245.393 476.921 261.785 461.409 267.032C446.614 271.986 428.201 271.465 410.408 270.976H409.821C392.81 270.585 375.245 270.161 360.091 274.235C319.356 285.218 297.815 321.034 275.035 358.969C259.034 385.627 242.447 413.198 218.266 432.394C193.434 451.948 170.165 457.684 143.312 464.267C126.76 467.901 110.49 472.715 94.6251 478.672C88.5636 480.986 82.5674 483.625 76.7666 486.135L73.7033 487.504C52.7489 496.759 32.9676 505.493 20.8772 499.627C-7.63772 485.744 7.35305 439.042 20.6166 397.718C23.6799 388.267 26.8735 378.164 29.3503 369.104C31.4359 361.087 33.0654 352.614 34.8904 342.869C36.5419 331.777 39.237 320.865 42.9397 310.279C53.6614 284.207 75.8867 260.123 99.4156 234.573C104.597 228.739 109.909 222.873 115.156 217.007Z" stroke="#FAC45D" stroke-opacity="0.34" stroke-width="3" stroke-miterlimit="10"/>
<path d="M74.8007 426.227C85.7412 435.09 100.372 439 116.407 439C152.952 439 196.779 418.766 220.717 391.233C234.532 375.365 239.757 353.339 244.329 333.92C246.37 323.404 249.5 313.129 253.669 303.259C264.251 281.494 282.082 270.188 299.391 259.24L299.848 258.946C314.74 249.595 328.75 240.765 336.458 226.135C343.479 212.841 342.989 197.755 342.597 183.191L341.389 182.995L340.017 183.419C340.442 197.69 340.866 212.418 334.172 225.158C326.758 239.201 313.009 247.966 298.248 257.024L297.758 257.35C280.253 268.461 262.16 279.962 251.253 302.347C247.135 312.325 244.049 322.697 242.043 333.301C237.504 352.46 232.246 374.192 218.986 389.572C185.218 428.443 111.215 452.587 76.4336 424.305C65.2972 415.312 59.4187 400.226 59.4187 380.709C59.4187 350.896 72.6453 317.791 85.7412 300.49C94.5665 289.464 104.407 279.286 115.134 270.09L116.374 268.949C124.045 262.161 131.318 254.937 138.157 247.314C144.461 239.983 150.11 232.913 155.826 225.679C167.354 211.115 178.262 197.364 192.827 185.537C209.548 171.982 227.804 163.739 247.138 155.007C268.986 145.232 291.585 135.001 312.454 116.331C318.398 110.954 324.831 104.731 330.906 98.8661C360.135 70.6819 395.797 36.2742 435.706 36.2742C440.09 36.2666 444.465 36.6812 448.769 37.5124H449.03C452.264 39.1737 455.126 41.4751 457.439 44.2761C459.752 47.0771 461.469 50.3189 462.485 53.8039V53.9993C462.093 96.3572 428.619 108.771 396.222 120.599C377.378 127.474 356.053 135.229 342.891 149.598L342.63 150.054C339.364 160.057 339.789 170.972 340.115 182.637L341.356 182.898H342.565V182.604C342.238 171.331 341.912 160.676 344.883 151.162C357.653 137.347 377.542 130.048 397.136 123.01C430.284 110.857 464.608 98.3448 465 54.0971L464.804 53.0544C463.681 49.2402 461.786 45.6963 459.236 42.642C456.686 39.5876 453.535 37.0876 449.977 35.2967H449.422C402.852 26.3364 362.062 65.6315 329.306 97.2044C323.231 103.069 316.83 109.26 310.919 114.604C290.214 133.013 267.778 143.114 246.093 152.889C226.498 161.686 208.209 169.995 191.26 183.745C176.466 195.735 164.97 210.235 153.866 224.278C148.184 231.479 142.566 238.549 136.296 245.815C129.503 253.365 122.285 260.523 114.676 267.255L113.435 268.363C102.646 277.697 92.7313 287.992 83.8143 299.121C70.4898 316.749 57.002 350.472 57.002 380.807C56.8714 401.041 63.0765 416.746 74.8007 426.227Z" stroke="#FAC45D" stroke-opacity="0.34" stroke-width="3" stroke-miterlimit="10"/>
<path d="M188.202 279.909L187.645 279.713C160.654 270.846 120.677 297.904 105.657 326.233C99.2623 338.197 91.7852 360.626 113.2 376.143C119.713 381.129 127.675 383.885 135.894 384C145.262 383.742 154.281 380.406 161.54 374.513C184.496 357.138 201.484 316.258 188.497 280.463L188.202 279.909ZM159.998 372.557C144.946 383.902 128.811 384.489 114.578 374.187C94.6383 359.746 101.755 338.654 107.756 327.374C122.317 300.088 160.458 273.91 186.464 281.734C198.533 316.453 182.233 355.964 159.998 372.557Z" stroke="#FAC45D" stroke-opacity="0.34" stroke-width="3" stroke-miterlimit="10"/>
</svg>
