<svg width="88" height="84" viewBox="0 0 88 84" fill="none" xmlns="http://www.w3.org/2000/svg">
<path fill-rule="evenodd" clip-rule="evenodd" d="M85.2365 1.95718C79.1914 43.3343 42.0652 63.4324 3.30738 68.0022C2.64184 68.082 2.16332 68.6862 2.24306 69.3517C2.3228 70.0173 2.92697 70.4957 3.59251 70.416C43.4361 65.7204 81.4272 44.8432 87.641 2.30678C87.7391 1.64431 87.279 1.02784 86.6135 0.929696C85.951 0.831551 85.3346 1.29163 85.2365 1.95718Z" fill="#FFBE40"/>
<path fill-rule="evenodd" clip-rule="evenodd" d="M4.17737 69.124C5.90103 67.8634 8.08169 66.3054 8.32398 66.1214C14.8905 61.1344 20.3313 55.396 25.122 48.6639C25.5115 48.118 25.3827 47.3574 24.8367 46.9679C24.2908 46.5784 23.5303 46.7072 23.1407 47.2532C18.4973 53.7828 13.2221 59.3495 6.85187 64.1861C6.48077 64.4683 1.57653 67.9677 0.638025 68.7498C0.251582 69.0688 0.132052 69.3694 0.110583 69.443C-0.0182317 69.8294 0.0584196 70.133 0.162698 70.3539C0.282312 70.6023 0.579734 70.9642 1.15633 71.1482C1.76053 71.3384 3.10395 71.4243 3.44132 71.4734C8.5295 72.2278 14.274 72.6266 19.5033 74.0742C24.4903 75.4543 29.014 77.7914 31.9154 82.4747C32.2681 83.0452 33.0195 83.22 33.59 82.8673C34.1605 82.5146 34.3354 81.7632 33.9827 81.1927C30.7378 75.9573 25.7262 73.2737 20.1534 71.7309C14.9548 70.2925 9.26248 69.857 4.17737 69.124Z" fill="#FFBE40"/>
</svg>
