<svg width="97" height="59" viewBox="0 0 97 59" fill="none" xmlns="http://www.w3.org/2000/svg">
<path fill-rule="evenodd" clip-rule="evenodd" d="M12.3406 0.143501C8.50925 1.85495 4.70392 3.51454 0.924667 5.33619C0.110173 5.72516 -0.228605 6.69098 0.162352 7.49484C0.553309 8.30519 1.5306 8.6424 2.33858 8.25343C6.09828 6.44474 9.87095 4.79816 13.6763 3.09967C14.4973 2.73016 14.8623 1.77068 14.4974 0.960334C14.126 0.143507 13.1616 -0.226016 12.3406 0.143501Z" fill="#FCB219"/>
<path fill-rule="evenodd" clip-rule="evenodd" d="M40.4895 20.3891C34.9249 32.3758 29.9726 44.6347 24.6686 56.7315C24.3102 57.5548 24.6882 58.5078 25.5092 58.8644C26.3367 59.2209 27.2944 58.8514 27.6593 58.0281C32.9503 45.9507 37.8893 33.7113 43.4474 21.7506C43.8254 20.9338 43.4672 19.9743 42.6527 19.5983C41.8317 19.2223 40.8674 19.5788 40.4895 20.3891Z" fill="#FCB219"/>
<path fill-rule="evenodd" clip-rule="evenodd" d="M88.2321 23.5009C90.011 34.5216 92.1026 45.5098 93.7576 56.55C93.8945 57.4316 94.7219 58.0409 95.6081 57.9112C96.5007 57.7816 97.1131 56.9519 96.9828 56.0702C95.3213 45.0172 93.2296 34.0159 91.4443 22.9822C91.3009 22.1006 90.467 21.4977 89.5808 21.6403C88.6881 21.7829 88.0888 22.6128 88.2321 23.5009Z" fill="#FCB219"/>
</svg>