<svg width="97" height="58" viewBox="0 0 97 58" fill="none" xmlns="http://www.w3.org/2000/svg">
<path fill-rule="evenodd" clip-rule="evenodd" d="M69.9385 55.1778C78.599 55.3877 87.4493 54.9679 95.73 57.9447C96.2236 58.1202 96.7666 57.8645 96.945 57.3684C97.1197 56.8723 96.8653 56.3266 96.3717 56.1472C87.8973 53.1017 78.8458 53.4834 69.9841 53.2696C69.4601 53.2544 69.0235 53.6742 69.0121 54.2008C68.9969 54.7275 69.4146 55.1626 69.9385 55.1778Z" fill="black"/>
<path fill-rule="evenodd" clip-rule="evenodd" d="M69.1601 42.5392C71.8596 40.0425 74.8059 38.1722 78.3673 37.2452C78.876 37.1131 79.1798 36.5922 79.0507 36.0823C78.9178 35.5724 78.3977 35.266 77.8927 35.398C74.02 36.4056 70.8117 38.4214 67.8768 41.1344C67.4895 41.4909 67.4629 42.095 67.8198 42.4827C68.1729 42.8701 68.7766 42.8956 69.1601 42.5392Z" fill="black"/>
<path fill-rule="evenodd" clip-rule="evenodd" d="M61.6501 15.2817C62.8878 11.0169 65.3253 7.68063 69.0614 5.27137C69.5018 4.98705 69.6309 4.39629 69.3461 3.95321C69.0652 3.51013 68.4766 3.38113 68.0362 3.66545C63.9015 6.33308 61.1982 10.025 59.8276 14.747C59.6795 15.2523 59.9719 15.7828 60.4731 15.9301C60.978 16.0778 61.5058 15.7869 61.6501 15.2817Z" fill="black"/>
<path fill-rule="evenodd" clip-rule="evenodd" d="M18.9933 9.49378C18.2568 10.365 17.5961 11.3039 17.0342 12.3034C16.7836 12.7484 16.3432 13.694 16.2748 14.505C16.1989 15.369 16.4912 16.098 17.243 16.4819C18.2415 16.991 19.0389 16.938 19.654 16.63C20.2463 16.3342 20.7095 15.753 21.0018 14.9737C21.5599 13.4842 21.4764 11.2077 21.184 9.90863C21.97 9.09345 22.8319 8.35421 23.7545 7.69703C30.6266 2.80256 40.7071 4.60732 48.4639 11.9256C51.1786 14.4879 52.4847 19.8689 53.1643 25.6747C54.2236 34.7145 53.62 44.8111 53.5364 47.7691C53.5174 48.4996 53.5858 48.9331 53.6237 49.0197C53.8022 49.4456 54.1173 49.5563 54.3375 49.5983C54.6565 49.6555 54.9108 49.5945 55.1158 49.4876C55.393 49.3411 55.6209 49.0831 55.7272 48.685C55.7841 48.4652 55.7993 48.1592 55.7917 47.8329C55.7841 47.6066 55.7385 47.3592 55.7841 47.1971C56.0802 46.1582 56.4371 45.1439 56.7864 44.1222C57.9521 40.6879 59.4594 37.4696 61.1338 34.255C66.4531 24.041 71.5977 13.2487 80.3189 5.46676C80.7099 5.11756 80.7479 4.51382 80.3986 4.11997C80.0531 3.72612 79.4532 3.69024 79.0584 4.03982C70.1625 11.9755 64.8774 22.9537 59.4518 33.37C58.028 36.1044 56.7219 38.8427 55.636 41.7069C55.7461 36.6403 55.7043 29.6269 54.7817 23.4216C53.9616 17.9027 52.4012 13.0254 49.7624 10.5345C41.2652 2.51748 30.1824 0.778376 22.6572 6.14035C21.8523 6.71433 21.0854 7.34557 20.3716 8.03022C16.4343 0.884099 8.00545 -1.98009 0.556166 1.43783C0.0777716 1.65651 -0.131047 2.22286 0.0853689 2.70181C0.305582 3.18077 0.867485 3.3922 1.34588 3.17352C8.05858 0.0937281 15.6712 2.84225 18.9933 9.49378ZM19.5439 11.8862C19.2363 12.3228 18.9516 12.7755 18.6858 13.2433C18.5453 13.4945 18.3023 13.9772 18.1998 14.4497C18.177 14.5604 18.1732 14.7336 18.1732 14.8138C18.4352 14.9435 18.6402 15.0061 18.8073 14.9218C19.0161 14.818 19.1224 14.5737 19.2249 14.3009C19.4831 13.6162 19.5666 12.7087 19.5439 11.8862Z" fill="black"/>
</svg>
