<svg width="149" height="92" viewBox="0 0 149 92" fill="none" xmlns="http://www.w3.org/2000/svg">
<path fill-rule="evenodd" clip-rule="evenodd" d="M129.926 90.7894C135.806 88.1494 141.646 85.5894 147.446 82.7794C148.696 82.1794 149.216 80.6895 148.616 79.4495C148.016 78.1995 146.516 77.6794 145.276 78.2794C139.506 81.0694 133.717 83.6093 127.877 86.2293C126.617 86.7993 126.056 88.2794 126.616 89.5294C127.186 90.7894 128.666 91.3594 129.926 90.7894Z" fill="#40FF81"/>
<path fill-rule="evenodd" clip-rule="evenodd" d="M86.7265 59.5596C95.2665 41.0696 102.867 22.1596 111.007 3.49957C111.557 2.22957 110.977 0.759533 109.717 0.209534C108.447 -0.340466 106.977 0.229572 106.417 1.49957C98.297 20.1296 90.717 39.0095 82.187 57.4595C81.607 58.7195 82.1567 60.1996 83.4067 60.7796C84.6667 61.3596 86.1465 60.8096 86.7265 59.5596Z" fill="#40FF81"/>
<path fill-rule="evenodd" clip-rule="evenodd" d="M13.4565 54.7598C10.7265 37.7598 7.51654 20.8098 4.97654 3.77979C4.76654 2.41979 3.49669 1.47993 2.13669 1.67994C0.766694 1.87994 -0.173169 3.15978 0.0268307 4.51978C2.57683 21.5698 5.78683 38.5398 8.52683 55.5598C8.74683 56.9198 10.0267 57.8499 11.3867 57.6299C12.7567 57.4099 13.6765 56.1298 13.4565 54.7598Z" fill="#40FF81"/>
</svg>
