<svg width="82" height="80" viewBox="0 0 82 80" fill="none" xmlns="http://www.w3.org/2000/svg">
<path fill-rule="evenodd" clip-rule="evenodd" d="M12.6836 44.2341C11.4186 38.7929 9.37629 33.4901 7.35915 28.3658C6.92118 27.264 5.6802 26.6991 4.63193 27.1787C3.54249 27.585 3.02477 28.8284 3.4223 29.8565C5.3814 34.8209 7.37988 39.9549 8.57295 45.148C8.8224 46.2574 9.95753 46.977 11.0976 46.7347C12.237 46.4927 12.9323 45.3439 12.6836 44.2341Z" fill="#2F9D55"/>
<path fill-rule="evenodd" clip-rule="evenodd" d="M39.2874 48.2285C42.8657 36.3897 44.9214 24.1403 48.7883 12.3348C49.167 11.2642 48.5597 10.0636 47.462 9.70742C46.3637 9.35165 45.1564 9.91884 44.8182 11.0632C40.9285 22.8812 38.8506 35.1427 35.2496 46.994C34.929 48.1287 35.5656 49.3128 36.6831 49.658C37.7595 49.93 38.9669 49.3631 39.2874 48.2285Z" fill="#2F9D55"/>
<path fill-rule="evenodd" clip-rule="evenodd" d="M76.8772 46.0985C72.5664 48.7524 68.2555 51.4058 63.944 54.0601C62.9288 54.6174 62.6304 55.9322 63.246 56.9365C63.8622 57.9404 65.1305 58.2023 66.1465 57.6446C70.4646 54.9867 74.7822 52.3296 79.0996 49.6721C80.0743 49.0411 80.3677 47.7295 79.7462 46.7284C79.1653 45.801 77.8512 45.468 76.8772 46.0985Z" fill="#2F9D55"/>
</svg>
