<svg width="130" height="109" viewBox="0 0 130 109" fill="none" xmlns="http://www.w3.org/2000/svg">
<path fill-rule="evenodd" clip-rule="evenodd" d="M10.8316 107.29C14.2448 92.6638 19.1745 86.2087 25.1475 84.0207C31.1206 81.828 37.8521 83.9046 44.5836 85.986C49.2292 87.4502 53.9697 88.944 58.331 89.213C62.8819 89.4961 67.1485 88.4536 70.8461 84.7824C71.6994 83.9011 72.458 82.4712 72.9321 80.5652C73.6905 77.9791 74.1646 74.4596 74.3542 70.33C75.3023 54.6645 73.4065 30.0076 75.6819 14.9913C76.156 11.5393 76.9139 8.61204 77.9568 6.45838C78.9049 4.5843 80.0424 3.31793 81.5594 2.99571C82.7919 2.73272 84.2143 3.10112 86.0156 4.10095C89.0496 5.808 92.6521 9.28962 97.203 14.9367C101.185 19.8802 104.504 25.4491 108.391 30.5063C114.459 38.4232 120.811 46.4467 127.922 52.7986C128.396 53.2002 129.059 53.16 129.438 52.7098C129.912 52.2585 129.818 51.5666 129.344 51.1651C122.328 44.9031 116.071 36.9839 110.098 29.1784C106.305 24.1081 102.892 18.525 98.9103 13.5685C94.1698 7.62522 90.2826 3.99672 87.0591 2.19964C84.7837 0.864566 82.7919 0.50205 81.0853 0.853885C79.3788 1.21638 77.8622 2.3406 76.7245 4.14361C75.2075 6.52945 74.1642 10.1828 73.5006 14.6678C71.2251 29.7375 73.1219 54.4832 72.1738 70.2044C71.9842 74.1445 71.5097 77.5053 70.8461 79.9729C70.4668 81.4359 69.9926 82.5636 69.2341 83.2401C66.1054 86.4125 62.4084 87.2725 58.4264 87.0285C54.2547 86.7691 49.7038 85.306 45.153 83.8963C38.0422 81.6657 30.7415 79.6175 24.3893 81.9666C18.037 84.3192 12.3484 91.0705 8.74563 106.795C8.55601 107.384 8.93506 107.973 9.50392 108.109C10.0728 108.245 10.7368 107.879 10.8316 107.29Z" fill="#FFBE40"/>
<path fill-rule="evenodd" clip-rule="evenodd" d="M7.68015 106.438C7.58534 106.285 7.39535 105.87 7.30054 105.526C6.73168 103.856 6.16338 101.264 5.97376 100.503C3.88794 93.7758 2.18137 86.2451 2.18137 79.039C2.18137 78.4348 1.70676 77.9456 1.1379 77.9468C0.474234 77.948 0 78.4384 0 79.0425C0 86.4571 1.80139 94.207 3.79239 101.13C4.07682 101.901 4.64568 104.532 5.21454 106.229C5.40416 106.839 5.59434 107.343 5.78395 107.661C5.97357 107.921 6.16282 108.1 6.35244 108.213C6.73168 108.504 7.3011 108.646 7.86996 108.627C8.53362 108.606 9.29192 108.387 10.0504 108.015C11.6622 107.288 13.5582 105.957 15.0751 104.905C15.9284 104.301 16.6871 103.786 17.1611 103.628C21.238 102.277 25.6936 103.717 29.1068 108.394C29.486 108.88 30.1503 108.985 30.6243 108.627C31.0984 108.27 31.193 107.584 30.9086 107.097C26.7369 101.488 21.4274 99.9275 16.4973 101.55C15.2648 101.941 12.6104 104.1 10.2402 105.479C9.48172 105.873 8.8175 106.198 8.24864 106.357C8.05902 106.403 7.96421 106.435 7.77459 106.439C7.77459 106.442 7.68015 106.445 7.68015 106.438Z" fill="#FFBE40"/>
</svg>
