<svg width="72" height="50" viewBox="0 0 72 50" fill="none" xmlns="http://www.w3.org/2000/svg">
<path d="M33.6825 48.2958C33.5609 48.7826 33.28 49.2147 32.8845 49.5235C32.4891 49.8323 32.0018 50.0001 31.5 50.0002C31.3105 50.0011 31.1215 49.9784 30.9375 49.9327L21.9375 47.6827C21.687 47.6198 21.4491 47.5141 21.2344 47.3705L14.4844 42.8705C13.988 42.5393 13.6435 42.0245 13.5267 41.4393C13.4098 40.8541 13.5303 40.2464 13.8614 39.75C14.1926 39.2536 14.7075 38.9091 15.2927 38.7923C15.8779 38.6754 16.4855 38.7959 16.9819 39.1271L23.4057 43.4105L32.0288 45.5677C32.3169 45.6375 32.5884 45.7636 32.8276 45.9387C33.0668 46.1138 33.2691 46.3345 33.4228 46.588C33.5764 46.8415 33.6785 47.1229 33.7231 47.416C33.7677 47.7091 33.7539 48.0081 33.6825 48.2958ZM71.0016 21.1664C70.817 21.7272 70.5231 22.2458 70.1369 22.6923C69.7507 23.1389 69.2799 23.5045 68.7516 23.768L62.0916 27.098L46.6004 42.5921C46.3254 42.8667 45.984 43.0655 45.6094 43.169C45.2348 43.2725 44.8398 43.2772 44.4628 43.1827L26.4629 38.6827C26.1891 38.614 25.9306 38.4947 25.7007 38.3311L10.0857 27.1824L3.25691 23.768C2.18967 23.2345 1.378 22.299 1.00037 21.1671C0.622742 20.0353 0.710074 18.7998 1.24316 17.7324L8.23223 3.75706C8.76574 2.68982 9.70126 1.87815 10.8331 1.50052C11.9649 1.12289 13.2004 1.21022 14.2679 1.74331L20.4722 4.83706L35.3785 0.578938C35.7829 0.463271 36.2116 0.463271 36.616 0.578938L51.5222 4.83706L57.7266 1.74331C58.7941 1.21022 60.0295 1.12289 61.1614 1.50052C62.2932 1.87815 63.2287 2.68982 63.7622 3.75706L70.7513 17.7324C71.0179 18.2598 71.1772 18.8349 71.2202 19.4243C71.2632 20.0138 71.1889 20.6059 71.0016 21.1664ZM58.0135 24.8058L50.3607 9.50019H41.4113L29.25 21.3127C32.8107 23.588 38.3935 24.2152 43.4025 19.1667C43.7937 18.7724 44.317 18.5368 44.8715 18.5051C45.4261 18.4734 45.9727 18.648 46.4063 18.9952L56.0841 26.7492L58.0135 24.8058ZM5.26785 19.7433L10.2432 22.2324L17.2322 8.25706L12.2569 5.768L5.26785 19.7433ZM52.875 29.9358L45.0816 23.6949C39.586 28.1949 32.6082 28.7883 26.8257 25.1011C26.2569 24.7393 25.7766 24.2543 25.4204 23.682C25.0642 23.1096 24.8411 22.4646 24.7677 21.7944C24.6943 21.1243 24.7723 20.4462 24.9961 19.8103C25.2199 19.1744 25.5837 18.5969 26.0607 18.1205C26.0674 18.1123 26.075 18.1048 26.0832 18.098L38.7 5.86081L36 5.09019L21.8194 9.143L14.1216 24.5358L27.9591 34.4217L44.311 38.5083L52.875 29.9358ZM66.7238 19.7433L59.7432 5.768L54.7678 8.25706L61.7569 22.2324L66.7238 19.7433Z" fill="#655E5E"/>
</svg>
