<svg width="328" height="813" viewBox="0 0 328 813" fill="none" xmlns="http://www.w3.org/2000/svg">
<path d="M371.284 7.94076C364.187 -2.29708 349.022 -2.07395 342.252 7.52229C341.047 9.3152 340.241 11.3457 339.887 13.4771C334.35 50.1955 320.333 86.965 297.812 116.219C287.881 129.108 276.965 141.446 265.929 153.544C245.09 176.401 224.239 199.555 203.008 222.034C179.428 247.005 155.237 271.805 132.129 297.17C122.019 308.293 111.946 319.68 102.181 331.081C71.9586 366.542 43.6301 404.263 20.9801 444.716C4.26887 474.551 -7.30904 504.518 6.60189 538.401C20.644 572.586 49.8042 601.192 76.2881 625.225C149.599 691.728 238.803 745.252 322.185 800.199C337.008 809.971 355.871 820.105 363.858 835.107C370.522 847.629 371.829 862.721 373.672 877.734C374.065 880.885 374.58 884.293 375.979 886.992C376.922 889.017 378.742 890.497 380.916 891.007C384.698 891.88 390.26 889.932 395.612 887.744C404.236 884.226 412.867 880.583 421.447 876.924C424.456 875.648 427.421 874.382 430.349 873.18C441.4 868.634 453.329 862.924 461.043 853.398C465.529 847.749 468.632 841.129 470.103 834.066C473.475 819.788 480.577 796.992 467.93 784.634C458.427 775.35 445.699 768.962 434.222 762.119C408.444 746.735 382.999 730.609 357.535 714.815C327.204 696.007 296.902 676.512 268.293 655.53C224.682 623.519 173.107 584.131 150.604 532.706C130.966 487.723 149.622 437.409 168 396.049C192.229 341.514 229.441 294.406 270.972 251.015C290.2 230.918 311.025 211.782 329.987 191.691C346.45 174.253 361.838 155.395 373.223 134.765C382.038 118.906 387.483 101.395 389.218 83.3296C391.646 58.6071 385.6 28.5846 371.284 7.94076Z" fill="#FFD300" fill-opacity="0.17"/>
</svg>
