<svg width="193" height="173" viewBox="0 0 193 173" fill="none" xmlns="http://www.w3.org/2000/svg">
<path fill-rule="evenodd" clip-rule="evenodd" d="M164.288 29.2866C156.846 23.863 149.404 19.0329 140.042 18.5435C139.001 18.4858 138.121 17.5297 138.201 16.4093C138.201 15.289 139.161 14.4264 140.281 14.4841C150.444 15.0142 158.607 20.0996 166.609 25.9842C192.856 45.1282 201.498 74.8584 183.493 104.046C168 129.183 140.531 149.267 110.743 159.207C109.655 163.162 108.032 166.991 106.37 170.242C106.388 170.223 106.406 170.204 106.423 170.185C106.726 169.863 107.006 169.565 107.263 169.382C109.448 167.791 112.088 165.91 114.682 165.076C114.955 164.982 115.274 165.142 115.365 165.433C115.456 165.723 115.319 166.036 115.001 166.13C112.626 166.904 110.208 168.631 108.118 170.124C108.045 170.176 107.972 170.228 107.9 170.279C107.643 170.476 107.318 170.829 106.989 171.186C106.852 171.335 106.714 171.484 106.581 171.623C106.171 172.025 105.761 172.346 105.352 172.463C105.124 172.544 104.714 172.453 104.441 171.941C104.14 171.34 103.869 169.854 103.759 169.251C103.737 169.125 103.721 169.038 103.713 169.004C103.258 167.028 102.803 165.289 101.073 164.04C100.845 163.861 100.8 163.514 100.937 163.267C101.119 163.02 101.483 162.965 101.71 163.145C103.668 164.568 104.305 166.516 104.805 168.769C104.805 168.881 104.914 169.628 105.09 170.348C106.729 167.221 108.375 163.49 109.51 159.611C88.1243 166.531 65.616 168.208 45.5361 162.768C44.6202 162.52 43.6772 162.273 42.7119 162.021C32.0383 159.228 18.6196 155.717 8.56594 142.344C0.243677 131.221 -1.27642 118.435 0.884163 105.927C4.08503 87.626 15.2875 69.9381 23.8498 59.3421C54.8182 21.1866 116.995 -13.2331 173.09 5.04911C174.131 5.39139 174.691 6.53692 174.371 7.60522C174.051 8.67352 172.931 9.26214 171.81 8.91986C117.315 -8.84446 57.0591 24.8517 26.9709 61.9266C20.0891 70.4242 11.4467 83.6438 6.9655 98.0073C2.56431 112.016 2.1642 127.148 11.7668 139.877C21.1077 152.264 33.528 155.465 43.514 158.039C44.5638 158.31 45.5867 158.573 46.5763 158.84C66.675 164.283 89.2644 162.35 110.571 155.059C111.232 151.135 111.182 147.24 109.902 143.83C109.538 142.86 108.946 141.747 108.218 140.688C108.173 140.924 108.082 141.16 107.991 141.395L107.937 141.563C107.54 142.793 107.09 144.193 106.306 145.238C105.214 146.671 103.985 147.225 102.756 147.213C101.027 147.194 99.2519 145.919 98.1596 144.172C97.0672 142.441 96.6119 140.273 97.2946 138.527C97.7498 137.331 98.7511 136.31 100.481 135.753C102.438 135.111 104.304 135.636 105.942 136.768C106.58 137.193 107.126 137.704 107.672 138.267C107.808 137.526 107.945 136.778 108.082 136.019C108.446 133.536 108.537 130.925 108.4 128.421C108.264 125.109 107.581 121.941 106.306 118.88C106.215 118.597 106.352 118.273 106.625 118.156C106.898 118.04 107.217 118.175 107.353 118.458C108.673 121.639 109.402 124.932 109.538 128.375C109.629 130.951 109.583 133.637 109.174 136.194C108.992 137.252 108.81 138.292 108.582 139.319C109.629 140.667 110.448 142.165 110.949 143.439C112.224 146.849 112.325 150.732 111.726 154.658C139.766 144.786 165.455 125.654 180.133 101.887C196.857 74.7316 188.695 47.0973 164.288 29.2866ZM51.994 80L55.226 68.848H53.658L51.21 78.272L48.65 68.848H47.018L44.33 78.304L41.898 68.848H40.346L43.466 80.016L45.082 80L47.77 71.024L50.362 80H51.994ZM62.9634 71.504C62.4301 71.216 61.8327 71.072 61.1714 71.072C60.5421 71.072 59.9714 71.1947 59.4594 71.44C58.9581 71.6853 58.5634 72.032 58.2754 72.48V68.16H56.8194V80H58.2754V75.152C58.2754 74.2347 58.4994 73.536 58.9474 73.056C59.4061 72.576 60.0194 72.336 60.7874 72.336C61.5447 72.336 62.1421 72.5707 62.5794 73.04C63.0167 73.4987 63.2354 74.1653 63.2354 75.04V80H64.6754V74.832C64.6754 74.0213 64.5207 73.3333 64.2114 72.768C63.9127 72.2027 63.4967 71.7813 62.9634 71.504ZM69.3258 84.128L74.6058 71.232H73.1018L70.3818 78.336L67.6298 71.232H66.0138L69.5498 79.904L67.8218 84.128H69.3258ZM82.607 84.128L87.887 71.232H86.383L83.663 78.336L80.911 71.232H79.295L82.831 79.904L81.103 84.128H82.607ZM90.9347 79.584C91.6067 79.9573 92.3533 80.144 93.1747 80.144C94.0067 80.144 94.764 79.9573 95.4467 79.584C96.1293 79.2107 96.668 78.6827 97.0627 78C97.468 77.3067 97.6707 76.5067 97.6707 75.6C97.6707 74.6933 97.4733 73.8987 97.0787 73.216C96.6947 72.5333 96.1667 72.0107 95.4947 71.648C94.8227 71.2747 94.0707 71.088 93.2387 71.088C92.4067 71.088 91.6547 71.2747 90.9827 71.648C90.3107 72.0107 89.7773 72.5387 89.3827 73.232C88.9986 73.9147 88.8067 74.704 88.8067 75.6C88.8067 76.5067 88.9933 77.3067 89.3667 78C89.7507 78.6827 90.2733 79.2107 90.9347 79.584ZM94.6467 78.496C94.188 78.7413 93.6973 78.864 93.1747 78.864C92.652 78.864 92.172 78.7467 91.7346 78.512C91.2973 78.2667 90.9453 77.8987 90.6786 77.408C90.4227 76.9173 90.2947 76.3147 90.2947 75.6C90.2947 74.896 90.428 74.2987 90.6947 73.808C90.9613 73.3173 91.3133 72.9547 91.7507 72.72C92.1987 72.4747 92.6893 72.352 93.2227 72.352C93.7453 72.352 94.2307 72.4747 94.6786 72.72C95.1267 72.9547 95.4893 73.3173 95.7667 73.808C96.044 74.2987 96.1827 74.896 96.1827 75.6C96.1827 76.304 96.0387 76.9013 95.7507 77.392C95.4733 77.8827 95.1053 78.2507 94.6467 78.496ZM107.361 80V71.232H105.905V76.048C105.905 76.9653 105.681 77.664 105.233 78.144C104.785 78.624 104.172 78.864 103.393 78.864C102.636 78.864 102.038 78.6347 101.601 78.176C101.164 77.7067 100.945 77.04 100.945 76.176V71.232H99.505V76.368C99.505 77.1787 99.6597 77.8667 99.969 78.432C100.289 78.9973 100.721 79.424 101.265 79.712C101.809 79.9893 102.422 80.128 103.105 80.128C103.702 80.128 104.246 80.0053 104.737 79.76C105.238 79.504 105.628 79.152 105.905 78.704V80H107.361ZM115.381 79.808C115.914 80.032 116.517 80.144 117.189 80.144C117.818 80.144 118.373 80.0373 118.853 79.824C119.344 79.6 119.722 79.296 119.989 78.912C120.256 78.528 120.389 78.096 120.389 77.616C120.378 77.0827 120.229 76.6507 119.941 76.32C119.664 75.9893 119.328 75.744 118.933 75.584C118.538 75.4133 118.026 75.2427 117.397 75.072C116.896 74.9333 116.501 74.8107 116.213 74.704C115.936 74.5867 115.701 74.4373 115.509 74.256C115.328 74.064 115.237 73.824 115.237 73.536C115.237 73.1733 115.392 72.88 115.701 72.656C116.01 72.432 116.426 72.32 116.949 72.32C117.514 72.32 117.962 72.4587 118.293 72.736C118.634 73.0133 118.821 73.3813 118.853 73.84H120.309C120.266 72.9867 119.946 72.3147 119.349 71.824C118.752 71.3333 117.968 71.088 116.997 71.088C116.368 71.088 115.808 71.2 115.317 71.424C114.826 71.6373 114.448 71.9307 114.181 72.304C113.914 72.6773 113.781 73.088 113.781 73.536C113.781 74.1013 113.925 74.56 114.213 74.912C114.512 75.2533 114.864 75.5147 115.269 75.696C115.685 75.8667 116.218 76.0373 116.869 76.208C117.584 76.3893 118.112 76.576 118.453 76.768C118.794 76.9493 118.965 77.232 118.965 77.616C118.965 77.9893 118.805 78.2987 118.485 78.544C118.165 78.7893 117.728 78.912 117.173 78.912C116.576 78.912 116.09 78.7733 115.717 78.496C115.354 78.2187 115.152 77.8613 115.109 77.424H113.605C113.637 77.9573 113.808 78.432 114.117 78.848C114.426 79.2533 114.848 79.5733 115.381 79.808ZM128.588 71.504C128.055 71.216 127.458 71.072 126.796 71.072C126.167 71.072 125.596 71.1947 125.084 71.44C124.583 71.6853 124.188 72.032 123.9 72.48V68.16H122.444V80H123.9V75.152C123.9 74.2347 124.124 73.536 124.572 73.056C125.031 72.576 125.644 72.336 126.412 72.336C127.17 72.336 127.767 72.5707 128.204 73.04C128.642 73.4987 128.86 74.1653 128.86 75.04V80H130.3V74.832C130.3 74.0213 130.146 73.3333 129.836 72.768C129.538 72.2027 129.122 71.7813 128.588 71.504ZM134.263 79.584C134.935 79.9573 135.681 80.144 136.503 80.144C137.335 80.144 138.092 79.9573 138.775 79.584C139.457 79.2107 139.996 78.6827 140.391 78C140.796 77.3067 140.999 76.5067 140.999 75.6C140.999 74.6933 140.801 73.8987 140.407 73.216C140.023 72.5333 139.495 72.0107 138.823 71.648C138.151 71.2747 137.399 71.088 136.567 71.088C135.735 71.088 134.983 71.2747 134.311 71.648C133.639 72.0107 133.105 72.5387 132.711 73.232C132.327 73.9147 132.135 74.704 132.135 75.6C132.135 76.5067 132.321 77.3067 132.695 78C133.079 78.6827 133.601 79.2107 134.263 79.584ZM137.975 78.496C137.516 78.7413 137.025 78.864 136.503 78.864C135.98 78.864 135.5 78.7467 135.063 78.512C134.625 78.2667 134.273 77.8987 134.007 77.408C133.751 76.9173 133.623 76.3147 133.623 75.6C133.623 74.896 133.756 74.2987 134.023 73.808C134.289 73.3173 134.641 72.9547 135.079 72.72C135.527 72.4747 136.017 72.352 136.551 72.352C137.073 72.352 137.559 72.4747 138.007 72.72C138.455 72.9547 138.817 73.3173 139.095 73.808C139.372 74.2987 139.511 74.896 139.511 75.6C139.511 76.304 139.367 76.9013 139.079 77.392C138.801 77.8827 138.433 78.2507 137.975 78.496ZM150.689 80V71.232H149.233V76.048C149.233 76.9653 149.009 77.664 148.561 78.144C148.113 78.624 147.5 78.864 146.721 78.864C145.964 78.864 145.366 78.6347 144.929 78.176C144.492 77.7067 144.273 77.04 144.273 76.176V71.232H142.833V76.368C142.833 77.1787 142.988 77.8667 143.297 78.432C143.617 78.9973 144.049 79.424 144.593 79.712C145.137 79.9893 145.75 80.128 146.433 80.128C147.03 80.128 147.574 80.0053 148.065 79.76C148.566 79.504 148.956 79.152 149.233 78.704V80H150.689ZM154.604 80V68.16H153.148V80H154.604ZM157.085 73.232C156.722 73.904 156.541 74.688 156.541 75.584C156.541 76.4693 156.722 77.2587 157.085 77.952C157.448 78.6453 157.944 79.184 158.573 79.568C159.213 79.952 159.922 80.144 160.701 80.144C161.458 80.144 162.12 79.9787 162.685 79.648C163.25 79.3067 163.677 78.8747 163.965 78.352V80H165.437V68.16H163.965V72.8C163.656 72.288 163.208 71.8773 162.621 71.568C162.034 71.248 161.4 71.088 160.717 71.088C159.928 71.088 159.213 71.2747 158.573 71.648C157.944 72.0213 157.448 72.5493 157.085 73.232ZM163.565 73.872C163.832 74.3627 163.965 74.9387 163.965 75.6C163.965 76.2613 163.832 76.8427 163.565 77.344C163.298 77.8347 162.936 78.2133 162.477 78.48C162.029 78.736 161.533 78.864 160.989 78.864C160.445 78.864 159.949 78.736 159.501 78.48C159.053 78.2133 158.696 77.8347 158.429 77.344C158.162 76.8427 158.029 76.256 158.029 75.584C158.029 74.9227 158.162 74.3467 158.429 73.856C158.696 73.3653 159.053 72.992 159.501 72.736C159.949 72.48 160.445 72.352 160.989 72.352C161.533 72.352 162.029 72.4853 162.477 72.752C162.936 73.008 163.298 73.3813 163.565 73.872ZM89.5292 101.088V92.848H88.0572V101.088C88.0572 101.589 87.9238 102.005 87.6572 102.336C87.3905 102.656 86.9852 102.816 86.4412 102.816C85.8972 102.816 85.4865 102.645 85.2092 102.304C84.9425 101.963 84.8038 101.52 84.7932 100.976H83.3372C83.3372 101.947 83.6198 102.715 84.1852 103.28C84.7505 103.835 85.5025 104.112 86.4412 104.112C87.3692 104.112 88.1158 103.84 88.6812 103.296C89.2465 102.741 89.5292 102.005 89.5292 101.088ZM93.9815 103.584C94.6535 103.957 95.4002 104.144 96.2215 104.144C97.0535 104.144 97.8109 103.957 98.4935 103.584C99.1762 103.211 99.7149 102.683 100.11 102C100.515 101.307 100.718 100.507 100.718 99.6C100.718 98.6933 100.52 97.8987 100.126 97.216C99.7415 96.5333 99.2135 96.0107 98.5415 95.648C97.8695 95.2747 97.1175 95.088 96.2855 95.088C95.4535 95.088 94.7015 95.2747 94.0295 95.648C93.3575 96.0107 92.8242 96.5387 92.4295 97.232C92.0455 97.9147 91.8535 98.704 91.8535 99.6C91.8535 100.507 92.0402 101.307 92.4135 102C92.7975 102.683 93.3202 103.211 93.9815 103.584ZM97.6935 102.496C97.2349 102.741 96.7442 102.864 96.2215 102.864C95.6989 102.864 95.2189 102.747 94.7815 102.512C94.3442 102.267 93.9922 101.899 93.7255 101.408C93.4695 100.917 93.3415 100.315 93.3415 99.6C93.3415 98.896 93.4749 98.2987 93.7415 97.808C94.0082 97.3173 94.3602 96.9547 94.7975 96.72C95.2455 96.4747 95.7362 96.352 96.2695 96.352C96.7922 96.352 97.2775 96.4747 97.7255 96.72C98.1735 96.9547 98.5362 97.3173 98.8135 97.808C99.0909 98.2987 99.2295 98.896 99.2295 99.6C99.2295 100.304 99.0855 100.901 98.7975 101.392C98.5202 101.883 98.1522 102.251 97.6935 102.496ZM102.68 93.52C102.872 93.712 103.107 93.808 103.384 93.808C103.651 93.808 103.875 93.712 104.056 93.52C104.248 93.328 104.344 93.0933 104.344 92.816C104.344 92.5387 104.248 92.304 104.056 92.112C103.875 91.92 103.651 91.824 103.384 91.824C103.107 91.824 102.872 91.92 102.68 92.112C102.488 92.304 102.392 92.5387 102.392 92.816C102.392 93.0933 102.488 93.328 102.68 93.52ZM104.088 104V95.232H102.632V104H104.088ZM113.433 96.048C112.772 95.3973 111.908 95.072 110.841 95.072C110.244 95.072 109.695 95.1947 109.193 95.44C108.703 95.6853 108.313 96.032 108.025 96.48V95.232H106.569V104H108.025V99.152C108.025 98.2347 108.249 97.536 108.697 97.056C109.156 96.576 109.769 96.336 110.537 96.336C111.295 96.336 111.892 96.5707 112.329 97.04C112.767 97.4987 112.985 98.1653 112.985 99.04V104H114.425V98.832C114.425 97.616 114.095 96.688 113.433 96.048ZM122.212 93.6C121.561 93.0027 120.708 92.704 119.652 92.704C118.958 92.704 118.345 92.8373 117.812 93.104C117.289 93.3707 116.884 93.7493 116.596 94.24C116.308 94.72 116.164 95.28 116.164 95.92H117.54C117.54 95.3013 117.726 94.816 118.1 94.464C118.484 94.1013 119.006 93.92 119.668 93.92C120.318 93.92 120.836 94.1067 121.22 94.48C121.604 94.8533 121.796 95.36 121.796 96C121.796 96.8853 121.497 97.488 120.9 97.808C120.302 98.128 119.476 98.288 118.42 98.288H117.956L118.02 100.816H119.284L119.332 99.296C120.516 99.296 121.454 99.0293 122.148 98.496C122.841 97.952 123.188 97.12 123.188 96C123.188 94.9973 122.862 94.1973 122.212 93.6ZM117.94 103.808C118.132 104 118.366 104.096 118.644 104.096C118.91 104.096 119.134 104 119.316 103.808C119.508 103.616 119.604 103.381 119.604 103.104C119.604 102.827 119.508 102.592 119.316 102.4C119.134 102.208 118.91 102.112 118.644 102.112C118.366 102.112 118.132 102.208 117.94 102.4C117.748 102.592 117.652 102.827 117.652 103.104C117.652 103.381 117.748 103.616 117.94 103.808ZM107.353 139.586C107.262 140.072 107.126 140.556 106.944 141.038C106.866 141.258 106.791 141.485 106.714 141.716L106.713 141.717C106.383 142.706 106.032 143.758 105.442 144.57C104.623 145.652 103.712 146.114 102.802 146.105C101.345 146.09 99.98 144.994 99.1152 143.581C98.2049 142.152 97.7497 140.372 98.3414 138.931C98.7055 138.003 99.4794 137.237 100.799 136.806C102.438 136.277 103.985 136.746 105.305 137.679C106.079 138.198 106.761 138.859 107.353 139.586Z" fill="#655E5E"/>
</svg>
