<svg width="391" height="458" viewBox="0 0 391 458" fill="none" xmlns="http://www.w3.org/2000/svg">
<g filter="url(#filter0_f_418_5865)">
<path d="M359.363 -315.521C373.787 -318.418 386.507 -305.806 384.406 -292.096C383.962 -289.584 382.985 -287.196 381.541 -285.093C356.175 -249.318 337.982 -206.553 333.18 -163.217C331.072 -144.117 330.253 -124.679 329.733 -105.346C328.74 -68.8299 327.515 -32.0514 327.165 4.46395C326.772 45.0229 327.04 85.9381 325.922 126.446C325.413 144.19 324.656 162.129 323.625 179.828C320.292 234.753 313.496 290.05 299.63 343.02C289.41 382.091 274.714 417.071 235.124 434.503C195.177 452.085 146.936 452.537 104.718 451.291C-12.1271 447.821 -131.863 420.291 -247.811 398.74C-268.426 394.912 -292.775 388.084 -311.859 394.305C-327.785 399.5 -341.259 411.269 -355.125 422.533C-358.04 424.891 -361.27 427.369 -364.671 428.52C-367.132 429.469 -369.892 429.238 -372.16 427.892C-376.093 425.537 -379.229 419.323 -381.991 413.078C-386.446 403.02 -390.805 392.852 -395.108 382.711C-396.623 379.161 -398.108 375.654 -399.615 372.233C-405.293 359.314 -410.766 344.684 -409.525 330.261C-408.715 321.781 -405.932 313.607 -401.398 306.393C-392.573 291.483 -379.942 266.271 -359.059 266.116C-343.37 266.001 -327.308 270.993 -311.939 274.571C-277.405 282.598 -242.548 289.721 -207.947 297.141C-166.736 305.985 -124.987 314.218 -83.46 319.801C-20.1357 328.289 56.0059 337.024 117.274 311.704C170.829 289.519 196.169 231.431 214.412 181.189C238.467 114.945 245.395 44.3859 245.603 -26.5493C245.706 -59.3976 243.663 -92.7364 243.986 -125.362C244.264 -153.683 246.618 -182.33 253.831 -209.208C259.321 -229.922 269.032 -249.28 282.354 -266.07C300.538 -289.093 330.273 -309.684 359.363 -315.521Z" fill="#FCB219" fill-opacity="0.53"/>
</g>
<defs>
<filter id="filter0_f_418_5865" x="-415.702" y="-321.939" width="806.337" height="779.651" filterUnits="userSpaceOnUse" color-interpolation-filters="sRGB">
<feFlood flood-opacity="0" result="BackgroundImageFix"/>
<feBlend mode="normal" in="SourceGraphic" in2="BackgroundImageFix" result="shape"/>
<feGaussianBlur stdDeviation="3" result="effect1_foregroundBlur_418_5865"/>
</filter>
</defs>
</svg>
