<?xml version="1.0" encoding="UTF-8"?>
<svg id="Layer_1" data-name="Layer 1" xmlns="http://www.w3.org/2000/svg" viewBox="0 0 841.89 595.28">
  <defs>
    <style>
      .cls-1 {
        fill: #fff;
      }
    </style>
  </defs>
  <path class="cls-1" d="m452.91,236.86l-35.61,69.06v32.16h-28.29v-32.16l-35.61-69.06h32.16l17.8,39.05,17.8-39.05h31.73Z"/>
  <path class="cls-1" d="m506.19,259.4v16.51h32.3v21.39h-32.3v18.24h36.61v22.54h-64.75v-101.22h64.75v22.54h-36.61Z"/>
  <path class="cls-1" d="m637.97,321.57h-35.9l-5.45,16.51h-29.58l36.9-101.22h32.45l36.76,101.22h-29.72l-5.46-16.51Zm-7.03-21.54l-10.91-32.74-10.77,32.74h21.68Z"/>
  <g>
    <path class="cls-1" d="m212.32,369.29h-5.47v3.89h6.01l-.19,1.25h-7.26v-11.01h7.17v1.25h-5.74v3.36h5.47v1.25Z"/>
    <path class="cls-1" d="m219.6,364.68h-3.56v-1.25h8.59v1.25h-3.56v9.76h-1.47v-9.76Z"/>
    <path class="cls-1" d="m228.26,363.43h1.46v4.6h5.74v-4.6h1.46v11.01h-1.46v-5.16h-5.74v5.16h-1.46v-11.01Z"/>
    <path class="cls-1" d="m243.42,363.43v11.01h-1.46v-11.01h1.46Z"/>
    <path class="cls-1" d="m257.97,368.87c0,3.03-1.7,5.72-5.17,5.72-3.24,0-5.05-2.5-5.05-5.66s1.85-5.66,5.18-5.66c3.1,0,5.04,2.33,5.04,5.6Zm-8.69.02c0,2.38,1.22,4.46,3.58,4.46,2.56,0,3.57-2.11,3.57-4.46s-1.15-4.38-3.57-4.38-3.59,2.02-3.59,4.37Z"/>
    <path class="cls-1" d="m262.31,363.43h4.18c2.14,0,3.61,1.2,3.61,3.2,0,2.15-1.54,3.28-3.7,3.28h-2.62v4.52h-1.47v-11.01Zm1.47,5.26h2.55c1.51,0,2.26-.74,2.26-2.02s-.91-2.01-2.21-2.01h-2.61v4.03Z"/>
    <path class="cls-1" d="m275.69,363.43v11.01h-1.46v-11.01h1.46Z"/>
    <path class="cls-1" d="m282.17,371.14l-1.18,3.3h-1.45l3.92-11.01h1.8l4.09,11.01h-1.56l-1.22-3.3h-4.39Zm4.02-1.25c-1.05-2.89-1.63-4.43-1.86-5.27h-.02c-.27.93-.91,2.8-1.76,5.27h3.64Z"/>
    <path class="cls-1" d="m293.14,374.44v-11.01h1.93c1.58,2.57,5.01,8.05,5.63,9.25h.02c-.11-1.41-.1-3.15-.1-4.95v-4.3h1.38v11.01h-1.82c-1.46-2.39-5.04-8.28-5.73-9.52h-.02c.08,1.25.08,3.12.08,5.11v4.41h-1.39Z"/>
    <path class="cls-1" d="m321.51,374.44v-4.04c0-.11-.03-.22-.07-.29l-3.88-6.68h1.67c1,1.79,2.6,4.62,3.1,5.59.47-.95,2.12-3.81,3.16-5.59h1.56l-4,6.7c-.04.07-.06.13-.06.28v4.02h-1.47Z"/>
    <path class="cls-1" d="m339.73,368.87c0,3.03-1.7,5.72-5.17,5.72-3.24,0-5.05-2.5-5.05-5.66s1.85-5.66,5.18-5.66c3.1,0,5.04,2.33,5.04,5.6Zm-8.69.02c0,2.38,1.22,4.46,3.58,4.46,2.56,0,3.57-2.11,3.57-4.46s-1.15-4.38-3.57-4.38-3.59,2.02-3.59,4.37Z"/>
    <path class="cls-1" d="m345.5,363.43v6.62c0,2.6,1.43,3.3,2.84,3.3,1.65,0,2.81-.76,2.81-3.3v-6.62h1.47v6.55c0,3.57-1.98,4.6-4.31,4.6s-4.28-1.11-4.28-4.49v-6.65h1.48Z"/>
    <path class="cls-1" d="m359.87,364.68h-3.56v-1.25h8.59v1.25h-3.56v9.76h-1.47v-9.76Z"/>
    <path class="cls-1" d="m368.53,363.43h1.46v4.6h5.74v-4.6h1.46v11.01h-1.46v-5.16h-5.74v5.16h-1.46v-11.01Z"/>
    <path class="cls-1" d="m395.11,369.29h-5.47v3.89h6.01l-.19,1.25h-7.26v-11.01h7.17v1.25h-5.74v3.36h5.47v1.25Z"/>
    <path class="cls-1" d="m399.69,374.44v-11.01h1.93c1.58,2.57,5.01,8.05,5.63,9.25h.02c-.11-1.41-.1-3.15-.1-4.95v-4.3h1.38v11.01h-1.82c-1.46-2.39-5.04-8.28-5.73-9.52h-.02c.08,1.25.08,3.12.08,5.11v4.41h-1.39Z"/>
    <path class="cls-1" d="m415.87,364.68h-3.56v-1.25h8.59v1.25h-3.56v9.76h-1.47v-9.76Z"/>
    <path class="cls-1" d="m425.98,369.59v4.85h-1.45v-11.01h4.3c2.26,0,3.47,1.23,3.47,2.94,0,1.43-.82,2.3-1.88,2.59.9.24,1.68.91,1.68,2.82v.47c0,.76-.04,1.72.15,2.18h-1.42c-.2-.47-.19-1.33-.19-2.37v-.23c0-1.57-.44-2.25-2.42-2.25h-2.25Zm0-1.23h2.39c1.68,0,2.42-.63,2.42-1.87,0-1.17-.76-1.83-2.26-1.83h-2.56v3.7Z"/>
    <path class="cls-1" d="m443.73,369.29h-5.47v3.89h6.01l-.19,1.25h-7.26v-11.01h7.17v1.25h-5.74v3.36h5.47v1.25Z"/>
    <path class="cls-1" d="m448.31,363.43h4.18c2.14,0,3.61,1.2,3.61,3.2,0,2.15-1.54,3.28-3.7,3.28h-2.62v4.52h-1.47v-11.01Zm1.47,5.26h2.55c1.51,0,2.26-.74,2.26-2.02s-.91-2.01-2.21-2.01h-2.61v4.03Z"/>
    <path class="cls-1" d="m461.67,369.59v4.85h-1.45v-11.01h4.3c2.26,0,3.47,1.23,3.47,2.94,0,1.43-.82,2.3-1.88,2.59.9.24,1.68.91,1.68,2.82v.47c0,.76-.04,1.72.15,2.18h-1.42c-.2-.47-.19-1.33-.19-2.37v-.23c0-1.57-.44-2.25-2.42-2.25h-2.25Zm0-1.23h2.39c1.68,0,2.42-.63,2.42-1.87,0-1.17-.76-1.83-2.26-1.83h-2.56v3.7Z"/>
    <path class="cls-1" d="m479.43,369.29h-5.47v3.89h6.01l-.19,1.25h-7.26v-11.01h7.17v1.25h-5.74v3.36h5.47v1.25Z"/>
    <path class="cls-1" d="m484.01,374.44v-11.01h1.93c1.58,2.57,5.01,8.05,5.63,9.25h.02c-.11-1.41-.1-3.15-.1-4.95v-4.3h1.38v11.01h-1.82c-1.46-2.39-5.04-8.28-5.73-9.52h-.02c.08,1.25.08,3.12.08,5.11v4.41h-1.39Z"/>
    <path class="cls-1" d="m504.84,369.29h-5.47v3.89h6.01l-.19,1.25h-7.26v-11.01h7.17v1.25h-5.74v3.36h5.47v1.25Z"/>
    <path class="cls-1" d="m510.79,363.43v6.62c0,2.6,1.43,3.3,2.84,3.3,1.65,0,2.81-.76,2.81-3.3v-6.62h1.47v6.55c0,3.57-1.98,4.6-4.31,4.6s-4.28-1.11-4.28-4.49v-6.65h1.48Z"/>
    <path class="cls-1" d="m524.27,369.59v4.85h-1.45v-11.01h4.3c2.26,0,3.47,1.23,3.47,2.94,0,1.43-.82,2.3-1.88,2.59.9.24,1.68.91,1.68,2.82v.47c0,.76-.04,1.72.15,2.18h-1.42c-.2-.47-.19-1.33-.19-2.37v-.23c0-1.57-.44-2.25-2.42-2.25h-2.25Zm0-1.23h2.39c1.68,0,2.42-.63,2.42-1.87,0-1.17-.76-1.83-2.26-1.83h-2.56v3.7Z"/>
    <path class="cls-1" d="m535.79,371.37c.3,1.32,1.2,2.03,2.8,2.03,1.72,0,2.4-.81,2.4-1.85,0-1.1-.54-1.72-2.75-2.26-2.59-.63-3.49-1.52-3.49-3.07,0-1.63,1.21-2.97,3.66-2.97,2.62,0,3.7,1.52,3.85,2.96h-1.49c-.2-.98-.81-1.78-2.42-1.78-1.34,0-2.09.6-2.09,1.65s.62,1.44,2.55,1.91c3.14.76,3.69,1.99,3.69,3.4,0,1.78-1.32,3.17-4.01,3.17s-3.96-1.51-4.19-3.2h1.49Z"/>
    <path class="cls-1" d="m554.31,371.14l-1.18,3.3h-1.45l3.92-11.01h1.8l4.09,11.01h-1.56l-1.22-3.3h-4.39Zm4.02-1.25c-1.05-2.89-1.63-4.43-1.86-5.27h-.02c-.27.93-.91,2.8-1.76,5.27h3.64Z"/>
    <path class="cls-1" d="m566.08,371.37c.3,1.32,1.2,2.03,2.8,2.03,1.72,0,2.4-.81,2.4-1.85,0-1.1-.54-1.72-2.75-2.26-2.59-.63-3.49-1.52-3.49-3.07,0-1.63,1.21-2.97,3.66-2.97,2.62,0,3.7,1.52,3.85,2.96h-1.49c-.2-.98-.81-1.78-2.42-1.78-1.34,0-2.09.6-2.09,1.65s.62,1.44,2.55,1.91c3.14.76,3.69,1.99,3.69,3.4,0,1.78-1.32,3.17-4.01,3.17s-3.96-1.51-4.19-3.2h1.49Z"/>
    <path class="cls-1" d="m577.82,371.37c.3,1.32,1.2,2.03,2.8,2.03,1.72,0,2.4-.81,2.4-1.85,0-1.1-.54-1.72-2.75-2.26-2.59-.63-3.49-1.52-3.49-3.07,0-1.63,1.21-2.97,3.66-2.97,2.62,0,3.7,1.52,3.85,2.96h-1.49c-.2-.98-.81-1.78-2.42-1.78-1.34,0-2.09.6-2.09,1.65s.62,1.44,2.55,1.91c3.14.76,3.69,1.99,3.69,3.4,0,1.78-1.32,3.17-4.01,3.17s-3.96-1.51-4.19-3.2h1.49Z"/>
    <path class="cls-1" d="m598.42,368.87c0,3.03-1.7,5.72-5.17,5.72-3.24,0-5.05-2.5-5.05-5.66s1.85-5.66,5.18-5.66c3.1,0,5.04,2.33,5.04,5.6Zm-8.69.02c0,2.38,1.22,4.46,3.58,4.46,2.56,0,3.57-2.11,3.57-4.46s-1.15-4.38-3.57-4.38-3.59,2.02-3.59,4.37Z"/>
    <path class="cls-1" d="m611.48,371.32c-.49,1.87-1.88,3.26-4.38,3.26-3.29,0-4.95-2.5-4.95-5.61s1.66-5.69,5.01-5.69c2.6,0,4,1.48,4.33,3.32h-1.46c-.39-1.2-1.19-2.1-2.93-2.1-2.43,0-3.42,2.21-3.42,4.43s.94,4.44,3.48,4.44c1.7,0,2.44-.97,2.86-2.04h1.47Z"/>
    <path class="cls-1" d="m617.15,363.43v11.01h-1.46v-11.01h1.46Z"/>
    <path class="cls-1" d="m623.63,371.14l-1.18,3.3h-1.45l3.92-11.01h1.8l4.09,11.01h-1.56l-1.22-3.3h-4.39Zm4.02-1.25c-1.05-2.89-1.63-4.43-1.86-5.27h-.02c-.27.93-.91,2.8-1.76,5.27h3.64Z"/>
    <path class="cls-1" d="m635.53,364.68h-3.56v-1.25h8.59v1.25h-3.56v9.76h-1.47v-9.76Z"/>
    <path class="cls-1" d="m645.64,363.43v11.01h-1.46v-11.01h1.46Z"/>
    <path class="cls-1" d="m660.19,368.87c0,3.03-1.7,5.72-5.17,5.72-3.24,0-5.05-2.5-5.05-5.66s1.85-5.66,5.18-5.66c3.1,0,5.04,2.33,5.04,5.6Zm-8.69.02c0,2.38,1.22,4.46,3.58,4.46,2.56,0,3.57-2.11,3.57-4.46s-1.15-4.38-3.57-4.38-3.59,2.02-3.59,4.37Z"/>
    <path class="cls-1" d="m664.53,374.44v-11.01h1.93c1.58,2.57,5.01,8.05,5.63,9.25h.02c-.11-1.41-.1-3.15-.1-4.95v-4.3h1.38v11.01h-1.82c-1.46-2.39-5.04-8.28-5.73-9.52h-.02c.08,1.25.08,3.12.08,5.11v4.41h-1.39Z"/>
  </g>
  <rect class="cls-1" x="227.62" y="236.88" width="25.43" height="25.43"/>
  <rect class="cls-1" x="180.84" y="262.29" width="25.43" height="25.43"/>
  <rect class="cls-1" x="227.62" y="287.02" width="25.43" height="25.43"/>
  <rect class="cls-1" x="253.01" y="262.29" width="25.43" height="24.7"/>
  <rect class="cls-1" x="253.01" y="312.42" width="25.43" height="25.43"/>
  <rect class="cls-1" x="278.44" y="236.86" width="25.43" height="25.43"/>
  <rect class="cls-1" x="278.44" y="262.29" width="25.43" height="24.71"/>
  <rect class="cls-1" x="278.44" y="287" width="25.43" height="25.43"/>
  <rect class="cls-1" x="278.44" y="312.42" width="25.43" height="25.43"/>
  <rect class="cls-1" x="303.87" y="312.42" width="25.43" height="25.43"/>
  <rect class="cls-1" x="303.87" y="274.28" width="25.43" height="25.43"/>
  <rect class="cls-1" x="303.87" y="236.86" width="25.43" height="25.43"/>
</svg>