<?xml version="1.0" encoding="UTF-8"?>
<svg id="Layer_1" data-name="Layer 1" xmlns="http://www.w3.org/2000/svg" viewBox="0 0 841.89 595.28">
  <defs>
    <style>
      .cls-1 {
        fill: #fff;
      }
    </style>
  </defs>
  <g>
    <rect class="cls-1" x="180.46" y="216.07" width="88.09" height="26.25"/>
    <polygon class="cls-1" points="268.55 314.25 268.55 340.5 180.46 340.5 180.46 265.72 267.19 265.72 267.19 291.97 209.95 291.97 209.95 314.25 268.55 314.25"/>
    <polygon class="cls-1" points="363.32 287 363.16 287.25 363.16 340.51 333.67 340.51 333.67 287.25 287.26 216.07 320.98 216.07 348.36 260.37 348.4 260.31 363.32 287"/>
    <polygon class="cls-1" points="409.21 216.07 379.92 261.35 363.79 235.18 375.48 216.07 409.21 216.07"/>
    <rect class="cls-1" x="427.96" y="314.25" width="88.09" height="26.25"/>
    <polygon class="cls-1" points="516.05 242.33 516.05 216.07 427.96 216.07 427.96 290.86 514.68 290.86 514.68 264.6 457.45 264.6 457.45 242.33 516.05 242.33"/>
    <polygon class="cls-1" points="629.74 251.32 599.61 251.32 599.59 251.28 568.23 340.51 534.76 340.51 582.91 216.07 616.14 216.07 629.74 251.32"/>
    <polygon class="cls-1" points="664.17 340.51 630.81 340.51 615.27 296.09 608.79 277.59 639.88 277.59 664.17 340.51"/>
  </g>
  <g>
    <path class="cls-1" d="m187.51,368.02h-5.65v4.02h6.21l-.19,1.29h-7.49v-11.37h7.4v1.29h-5.92v3.47h5.65v1.29Z"/>
    <path class="cls-1" d="m195.04,363.26h-3.67v-1.29h8.87v1.29h-3.68v10.08h-1.52v-10.08Z"/>
    <path class="cls-1" d="m203.98,361.97h1.51v4.75h5.93v-4.75h1.51v11.37h-1.51v-5.33h-5.93v5.33h-1.51v-11.37Z"/>
    <path class="cls-1" d="m219.64,361.97v11.37h-1.51v-11.37h1.51Z"/>
    <path class="cls-1" d="m234.66,367.59c0,3.13-1.75,5.91-5.33,5.91-3.35,0-5.21-2.59-5.21-5.85s1.91-5.85,5.35-5.85c3.2,0,5.2,2.4,5.2,5.78Zm-8.97.02c0,2.46,1.26,4.61,3.7,4.61,2.64,0,3.69-2.18,3.69-4.6s-1.19-4.52-3.69-4.52-3.71,2.09-3.71,4.51Z"/>
    <path class="cls-1" d="m239.14,361.97h4.32c2.21,0,3.73,1.24,3.73,3.31,0,2.22-1.59,3.39-3.82,3.39h-2.71v4.67h-1.52v-11.37Zm1.52,5.43h2.63c1.56,0,2.34-.76,2.34-2.08s-.94-2.08-2.28-2.08h-2.69v4.16Z"/>
    <path class="cls-1" d="m252.96,361.97v11.37h-1.51v-11.37h1.51Z"/>
    <path class="cls-1" d="m259.65,369.93l-1.22,3.41h-1.5l4.05-11.37h1.86l4.22,11.37h-1.61l-1.26-3.41h-4.54Zm4.15-1.29c-1.08-2.99-1.68-4.58-1.93-5.44h-.02c-.28.97-.94,2.89-1.82,5.44h3.76Z"/>
    <path class="cls-1" d="m270.98,373.34v-11.37h2c1.63,2.66,5.18,8.31,5.81,9.55h.02c-.11-1.46-.1-3.25-.1-5.11v-4.44h1.43v11.37h-1.87c-1.5-2.47-5.2-8.55-5.91-9.83h-.02c.08,1.3.08,3.22.08,5.27v4.55h-1.43Z"/>
    <path class="cls-1" d="m300.29,373.34v-4.17c0-.11-.03-.22-.08-.3l-4-6.9h1.72c1.03,1.85,2.68,4.78,3.2,5.78.49-.98,2.19-3.94,3.26-5.78h1.61l-4.13,6.92c-.04.07-.07.13-.07.29v4.16h-1.52Z"/>
    <path class="cls-1" d="m319.1,367.59c0,3.13-1.75,5.91-5.33,5.91-3.35,0-5.21-2.59-5.21-5.85s1.91-5.85,5.35-5.85c3.2,0,5.2,2.4,5.2,5.78Zm-8.97.02c0,2.46,1.26,4.61,3.7,4.61,2.64,0,3.69-2.18,3.69-4.6s-1.19-4.52-3.69-4.52-3.71,2.09-3.71,4.51Z"/>
    <path class="cls-1" d="m325.06,361.97v6.84c0,2.69,1.47,3.41,2.93,3.41,1.7,0,2.91-.78,2.91-3.41v-6.84h1.52v6.76c0,3.69-2.04,4.75-4.46,4.75s-4.42-1.15-4.42-4.64v-6.87h1.53Z"/>
    <path class="cls-1" d="m339.91,363.26h-3.67v-1.29h8.87v1.29h-3.68v10.08h-1.52v-10.08Z"/>
    <path class="cls-1" d="m348.85,361.97h1.51v4.75h5.93v-4.75h1.51v11.37h-1.51v-5.33h-5.93v5.33h-1.51v-11.37Z"/>
    <path class="cls-1" d="m376.29,368.02h-5.65v4.02h6.21l-.19,1.29h-7.49v-11.37h7.4v1.29h-5.92v3.47h5.65v1.29Z"/>
    <path class="cls-1" d="m381.02,373.34v-11.37h2c1.63,2.66,5.18,8.31,5.81,9.55h.02c-.11-1.46-.1-3.25-.1-5.11v-4.44h1.43v11.37h-1.87c-1.5-2.47-5.2-8.55-5.91-9.83h-.02c.08,1.3.08,3.22.08,5.27v4.55h-1.43Z"/>
    <path class="cls-1" d="m397.74,363.26h-3.67v-1.29h8.87v1.29h-3.68v10.08h-1.52v-10.08Z"/>
    <path class="cls-1" d="m408.18,368.33v5.01h-1.49v-11.37h4.44c2.34,0,3.58,1.27,3.58,3.04,0,1.48-.85,2.37-1.94,2.67.93.25,1.73.94,1.73,2.91v.49c0,.78-.04,1.78.15,2.25h-1.47c-.21-.49-.19-1.38-.19-2.44v-.24c0-1.62-.46-2.32-2.5-2.32h-2.32Zm0-1.27h2.47c1.74,0,2.5-.65,2.5-1.93,0-1.21-.79-1.89-2.33-1.89h-2.64v3.82Z"/>
    <path class="cls-1" d="m426.51,368.02h-5.65v4.02h6.21l-.19,1.29h-7.49v-11.37h7.4v1.29h-5.92v3.47h5.65v1.29Z"/>
    <path class="cls-1" d="m431.24,361.97h4.32c2.21,0,3.73,1.24,3.73,3.31,0,2.22-1.59,3.39-3.82,3.39h-2.71v4.67h-1.52v-11.37Zm1.52,5.43h2.63c1.56,0,2.34-.76,2.34-2.08s-.94-2.08-2.28-2.08h-2.69v4.16Z"/>
    <path class="cls-1" d="m445.04,368.33v5.01h-1.49v-11.37h4.44c2.34,0,3.58,1.27,3.58,3.04,0,1.48-.85,2.37-1.94,2.67.93.25,1.73.94,1.73,2.91v.49c0,.78-.04,1.78.15,2.25h-1.47c-.21-.49-.19-1.38-.19-2.44v-.24c0-1.62-.46-2.32-2.5-2.32h-2.32Zm0-1.27h2.47c1.74,0,2.5-.65,2.5-1.93,0-1.21-.79-1.89-2.33-1.89h-2.64v3.82Z"/>
    <path class="cls-1" d="m463.38,368.02h-5.65v4.02h6.21l-.19,1.29h-7.49v-11.37h7.4v1.29h-5.92v3.47h5.65v1.29Z"/>
    <path class="cls-1" d="m468.11,373.34v-11.37h2c1.63,2.66,5.18,8.31,5.81,9.55h.02c-.11-1.46-.1-3.25-.1-5.11v-4.44h1.43v11.37h-1.87c-1.5-2.47-5.2-8.55-5.91-9.83h-.02c.08,1.3.08,3.22.08,5.27v4.55h-1.43Z"/>
    <path class="cls-1" d="m489.62,368.02h-5.65v4.02h6.21l-.19,1.29h-7.49v-11.37h7.4v1.29h-5.92v3.47h5.65v1.29Z"/>
    <path class="cls-1" d="m495.77,361.97v6.84c0,2.69,1.47,3.41,2.93,3.41,1.7,0,2.91-.78,2.91-3.41v-6.84h1.52v6.76c0,3.69-2.04,4.75-4.46,4.75s-4.42-1.15-4.42-4.64v-6.87h1.53Z"/>
    <path class="cls-1" d="m509.69,368.33v5.01h-1.49v-11.37h4.44c2.34,0,3.58,1.27,3.58,3.04,0,1.48-.85,2.37-1.94,2.67.93.25,1.73.94,1.73,2.91v.49c0,.78-.04,1.78.15,2.25h-1.47c-.21-.49-.19-1.38-.19-2.44v-.24c0-1.62-.46-2.32-2.5-2.32h-2.32Zm0-1.27h2.47c1.74,0,2.5-.65,2.5-1.93,0-1.21-.79-1.89-2.33-1.89h-2.64v3.82Z"/>
    <path class="cls-1" d="m521.59,370.17c.31,1.36,1.24,2.1,2.89,2.1,1.77,0,2.48-.83,2.48-1.91,0-1.14-.56-1.78-2.84-2.33-2.68-.65-3.61-1.57-3.61-3.17,0-1.69,1.24-3.06,3.78-3.06,2.71,0,3.82,1.56,3.97,3.06h-1.53c-.2-1.01-.84-1.84-2.5-1.84-1.38,0-2.16.62-2.16,1.71s.64,1.49,2.63,1.97c3.24.79,3.82,2.05,3.82,3.51,0,1.83-1.36,3.27-4.14,3.27s-4.09-1.56-4.33-3.31h1.53Z"/>
    <path class="cls-1" d="m540.72,369.93l-1.22,3.41h-1.5l4.05-11.37h1.86l4.22,11.37h-1.61l-1.26-3.41h-4.54Zm4.15-1.29c-1.08-2.99-1.68-4.58-1.93-5.44h-.02c-.28.97-.94,2.89-1.82,5.44h3.76Z"/>
    <path class="cls-1" d="m552.87,370.17c.31,1.36,1.24,2.1,2.89,2.1,1.77,0,2.48-.83,2.48-1.91,0-1.14-.56-1.78-2.84-2.33-2.68-.65-3.61-1.57-3.61-3.17,0-1.69,1.24-3.06,3.78-3.06,2.71,0,3.82,1.56,3.97,3.06h-1.53c-.2-1.01-.84-1.84-2.5-1.84-1.38,0-2.16.62-2.16,1.71s.64,1.49,2.63,1.97c3.24.79,3.82,2.05,3.82,3.51,0,1.83-1.36,3.27-4.14,3.27s-4.09-1.56-4.33-3.31h1.53Z"/>
    <path class="cls-1" d="m564.99,370.17c.31,1.36,1.24,2.1,2.89,2.1,1.77,0,2.48-.83,2.48-1.91,0-1.14-.56-1.78-2.84-2.33-2.68-.65-3.61-1.57-3.61-3.17,0-1.69,1.24-3.06,3.78-3.06,2.71,0,3.82,1.56,3.97,3.06h-1.53c-.2-1.01-.84-1.84-2.5-1.84-1.38,0-2.16.62-2.16,1.71s.64,1.49,2.63,1.97c3.24.79,3.82,2.05,3.82,3.51,0,1.83-1.36,3.27-4.14,3.27s-4.09-1.56-4.33-3.31h1.53Z"/>
    <path class="cls-1" d="m586.27,367.59c0,3.13-1.75,5.91-5.33,5.91-3.35,0-5.21-2.59-5.21-5.85s1.91-5.85,5.35-5.85c3.2,0,5.2,2.4,5.2,5.78Zm-8.97.02c0,2.46,1.26,4.61,3.7,4.61,2.64,0,3.69-2.18,3.69-4.6s-1.19-4.52-3.69-4.52-3.71,2.09-3.71,4.51Z"/>
    <path class="cls-1" d="m599.76,370.11c-.5,1.93-1.94,3.37-4.52,3.37-3.4,0-5.12-2.58-5.12-5.79s1.72-5.88,5.17-5.88c2.68,0,4.14,1.53,4.47,3.43h-1.51c-.41-1.24-1.23-2.17-3.02-2.17-2.51,0-3.53,2.28-3.53,4.58s.97,4.58,3.6,4.58c1.75,0,2.52-1,2.95-2.11h1.51Z"/>
    <path class="cls-1" d="m605.61,361.97v11.37h-1.51v-11.37h1.51Z"/>
    <path class="cls-1" d="m612.31,369.93l-1.22,3.41h-1.5l4.05-11.37h1.86l4.22,11.37h-1.61l-1.26-3.41h-4.54Zm4.15-1.29c-1.08-2.99-1.68-4.58-1.93-5.44h-.02c-.28.97-.94,2.89-1.82,5.44h3.76Z"/>
    <path class="cls-1" d="m624.6,363.26h-3.67v-1.29h8.87v1.29h-3.68v10.08h-1.52v-10.08Z"/>
    <path class="cls-1" d="m635.04,361.97v11.37h-1.51v-11.37h1.51Z"/>
    <path class="cls-1" d="m650.07,367.59c0,3.13-1.75,5.91-5.33,5.91-3.35,0-5.21-2.59-5.21-5.85s1.91-5.85,5.35-5.85c3.2,0,5.2,2.4,5.2,5.78Zm-8.97.02c0,2.46,1.26,4.61,3.7,4.61,2.64,0,3.69-2.18,3.69-4.6s-1.19-4.52-3.69-4.52-3.71,2.09-3.71,4.51Z"/>
    <path class="cls-1" d="m654.55,373.34v-11.37h2c1.63,2.66,5.18,8.31,5.81,9.55h.02c-.11-1.46-.1-3.25-.1-5.11v-4.44h1.43v11.37h-1.87c-1.5-2.47-5.2-8.55-5.91-9.83h-.02c.08,1.3.08,3.22.08,5.27v4.55h-1.43Z"/>
  </g>
</svg>