<svg width="90" height="91" viewBox="0 0 90 91" fill="none" xmlns="http://www.w3.org/2000/svg">
<path d="M79 0H11C4.92487 0 0 4.92487 0 11V80C0 86.0751 4.92487 91 11 91H55.5574C58.9874 91 62.221 89.4 64.3019 86.6734L87.7445 55.9555C89.2075 54.0384 90 51.6937 90 49.2821V11C90 4.92487 85.0751 0 79 0Z" fill="#A597FF"/>
<path d="M65.5622 42.0783L63.3955 40.8867L43.8955 30.0533H43.6572C43.5244 29.9972 43.3865 29.9537 43.2456 29.9233H42.8339H42.4439C42.2959 29.9537 42.1508 29.9972 42.0105 30.0533H41.7722L22.2722 40.8867C21.9388 41.0756 21.6614 41.3497 21.4685 41.6808C21.2755 42.012 21.1738 42.3884 21.1738 42.7717C21.1738 43.1549 21.2755 43.5314 21.4685 43.8625C21.6614 44.1937 21.9388 44.4677 22.2722 44.6567L27.6672 47.6467V57.9167C27.6672 59.6406 28.352 61.2939 29.571 62.5129C30.79 63.7319 32.4433 64.4167 34.1672 64.4167H51.5006C53.2245 64.4167 54.8778 63.7319 56.0967 62.5129C57.3157 61.2939 58.0005 59.6406 58.0005 57.9167V47.6467L62.3339 45.22V51.4167C62.3339 51.9913 62.5622 52.5424 62.9685 52.9487C63.3748 53.3551 63.9259 53.5833 64.5005 53.5833C65.0752 53.5833 65.6263 53.3551 66.0326 52.9487C66.4389 52.5424 66.6672 51.9913 66.6672 51.4167V43.9633C66.6666 43.5794 66.5639 43.2026 66.3697 42.8713C66.1756 42.5401 65.8969 42.2665 65.5622 42.0783ZM53.6672 57.9167C53.6672 58.4913 53.4389 59.0424 53.0326 59.4487C52.6263 59.8551 52.0752 60.0833 51.5006 60.0833H34.1672C33.5926 60.0833 33.0415 59.8551 32.6352 59.4487C32.2288 59.0424 32.0005 58.4913 32.0005 57.9167V50.0517L41.7722 55.4683L42.0972 55.5983H42.2922C42.4721 55.621 42.654 55.621 42.8339 55.5983C43.0137 55.621 43.1957 55.621 43.3755 55.5983H43.5706C43.6856 55.5741 43.7955 55.5301 43.8955 55.4683L53.6672 50.0517V57.9167ZM42.8339 51.1133L27.7972 42.75L42.8339 34.3867L57.8706 42.75L42.8339 51.1133Z" fill="black"/>
</svg>
