<svg width="90" height="91" viewBox="0 0 90 91" fill="none" xmlns="http://www.w3.org/2000/svg">
<path d="M79 0H11C4.92487 0 0 4.92487 0 11V80C0 86.0751 4.92487 91 11 91H55.5574C58.9874 91 62.221 89.4 64.3019 86.6734L87.7445 55.9555C89.2075 54.0384 90 51.6937 90 49.2821V11C90 4.92487 85.0751 0 79 0Z" fill="#FFDA92"/>
<path d="M47.5992 27.8C47.5992 26.364 46.4352 25.2 44.9992 25.2C43.5633 25.2 42.3992 26.364 42.3992 27.8V30.4C42.3992 31.8359 43.5633 33 44.9992 33C46.4352 33 47.5992 31.8359 47.5992 30.4V27.8Z" fill="#FCB219"/>
<path d="M59.7069 34.9689C60.7223 33.9536 60.7223 32.3074 59.7069 31.292C58.6916 30.2766 57.0453 30.2766 56.03 31.292L54.1915 33.1305C53.1761 34.1458 53.1761 35.7921 54.1915 36.8074C55.2069 37.8228 56.8531 37.8228 57.8685 36.8074L59.7069 34.9689Z" fill="#FCB219"/>
<path d="M65.7992 46C65.7992 47.4359 64.6352 48.6 63.1992 48.6H60.5992C59.1633 48.6 57.9992 47.4359 57.9992 46C57.9992 44.564 59.1633 43.4 60.5992 43.4H63.1992C64.6352 43.4 65.7992 44.564 65.7992 46Z" fill="#FCB219"/>
<path d="M32.1297 36.8075C33.1451 37.8228 34.7913 37.8228 35.8067 36.8075C36.822 35.7921 36.822 34.1459 35.8067 33.1305L33.9682 31.292C32.9528 30.2767 31.3066 30.2767 30.2912 31.292C29.2759 32.3074 29.2759 33.9536 30.2912 34.969L32.1297 36.8075Z" fill="#FCB219"/>
<path d="M31.9992 46C31.9992 47.4359 30.8352 48.6 29.3992 48.6H26.7992C25.3633 48.6 24.1992 47.4359 24.1992 46C24.1992 44.564 25.3633 43.4 26.7992 43.4H29.3992C30.8352 43.4 31.9992 44.564 31.9992 46Z" fill="#FCB219"/>
<path d="M39.7992 61.5999V59H50.1992V61.5999C50.1992 64.4718 47.8711 66.7999 44.9992 66.7999C42.1273 66.7999 39.7992 64.4718 39.7992 61.5999Z" fill="#FCB219"/>
<path d="M50.2015 56.4C50.2395 55.5151 50.739 54.7196 51.4389 54.1669C53.8511 52.2623 55.3992 49.3119 55.3992 46C55.3992 40.2562 50.743 35.6 44.9992 35.6C39.2555 35.6 34.5992 40.2562 34.5992 46C34.5992 49.3119 36.1474 52.2623 38.5595 54.1669C39.2595 54.7196 39.7589 55.5151 39.7969 56.4H50.2015Z" fill="#FCB219"/>
</svg>
