<svg width="177" height="44" viewBox="0 0 177 44" fill="none" xmlns="http://www.w3.org/2000/svg">
<g clip-path="url(#clip0_162_3589)">
<path d="M40.1409 2.51614C40.3953 2.60574 40.6169 2.76962 40.7772 2.98659C40.9375 3.20355 41.029 3.46361 41.0399 3.73314C41.1781 5.17248 41.237 6.61834 41.2164 8.06415C41.2012 8.72741 41.1859 9.39067 41.1418 10.0539C40.8923 9.95049 40.6565 9.84704 40.4055 9.74968C39.7727 9.5002 39.1536 9.26442 38.5192 9.04232C38.5344 8.7046 38.5496 8.38056 38.5496 8.04132C38.5633 6.9658 38.5344 5.87506 38.4462 4.77064C37.4148 4.44661 36.3392 4.15149 35.2515 3.88679C33.8824 3.56276 32.5133 3.29655 31.1259 3.10488C30.3455 3.00295 29.594 2.91319 28.8729 2.84017C28.1518 2.76715 27.3836 2.72303 26.6032 2.68805C25.9947 2.67283 25.4243 2.65914 24.8066 2.65914L23.9076 2.67284C23.6414 2.67284 23.3326 2.68805 23.0085 2.68805C22.2281 2.71847 21.4766 2.77628 20.7388 2.84017C20.001 2.90406 19.2663 3.00295 18.4859 3.10488C17.1167 3.29655 15.7309 3.56124 14.3602 3.88679C13.2695 4.15149 12.2092 4.44661 11.1656 4.77064C10.9861 7.19227 11.0503 9.62581 11.3573 12.0346C11.5202 13.3821 11.7563 14.7197 12.0647 16.0416C12.2411 16.7931 12.448 17.5446 12.6732 18.2656L12.6884 18.325L12.7021 18.3843L12.7173 18.4436L12.7462 18.5014L12.7614 18.5608L12.7766 18.6201L12.7918 18.6794L12.8496 18.8407V18.8559L12.8648 18.9137L12.9683 19.1936L12.982 19.2529L13.0718 19.4887L13.0854 19.5329C13.5404 20.8521 14.0671 22.1456 14.663 23.4075L14.6919 23.4516L14.7071 23.4972L14.7208 23.5261L14.7511 23.5703L14.7649 23.6144L14.7801 23.6585L14.809 23.6874C15.0311 24.1437 15.2654 24.6001 15.5027 25.0565C15.6792 25.3516 15.8404 25.665 16.0031 25.9404C16.1948 26.2801 16.3718 26.5747 16.5341 26.8242C17.0346 27.635 17.564 28.4306 18.1253 29.1974C18.6866 29.9641 19.2587 30.7003 19.893 31.4366C20.1293 31.7165 20.3945 32.0111 20.6886 32.3205C20.9685 32.6247 21.2332 32.929 21.4842 33.1891C22.1323 33.8524 22.8092 34.4867 23.4877 35.1044L23.7676 35.3402C23.5759 35.4923 23.3843 35.6444 23.1789 35.7965C22.648 36.1936 22.1034 36.5769 21.5573 36.9603C18.6136 34.3214 16.0811 31.2572 14.0438 27.8693V27.8541L14.0286 27.8404L14.0134 27.8252C13.8963 27.6335 13.7928 27.4418 13.6893 27.2806C13.5129 26.9565 13.3212 26.631 13.1599 26.3222C12.6731 25.4383 12.2305 24.5256 11.8045 23.5672C11.3786 22.6088 11.0089 21.6672 10.6697 20.724C10.1958 19.3907 9.79257 18.0334 9.46176 16.6577C8.46089 12.425 8.16236 8.05659 8.57798 3.72706C8.59044 3.45713 8.68426 3.19729 8.84717 2.9817C9.01008 2.76612 9.23446 2.60488 9.49073 2.51919C10.8903 2.0476 12.3202 1.63534 13.7639 1.28089C15.1787 0.956863 16.636 0.672392 18.1253 0.456375C18.8859 0.35293 19.6861 0.264699 20.5259 0.191679C21.3367 0.117138 22.1323 0.0593291 22.9127 0.0289041C23.2078 0.0289041 23.5212 0.0136953 23.8558 0.0136953L24.8143 0L25.7711 0.0136953C26.1104 0.0136953 26.4344 0.0289041 26.7143 0.0289041C27.5099 0.0593291 28.3055 0.117138 29.1163 0.191679C29.9561 0.264699 30.7517 0.35293 31.5032 0.456375C33.0046 0.676956 34.4636 0.956863 35.8783 1.28089C37.3083 1.63534 38.7367 2.04152 40.1515 2.51919L40.1409 2.51614ZM31.5062 29.1989C32.0371 28.4474 32.5711 27.6776 33.0533 26.885C33.2198 26.5862 33.4928 26.361 33.8179 26.2544C34.143 26.1478 34.4963 26.1677 34.8074 26.31C37.3675 27.5337 39.6916 29.1997 41.6727 31.2313C41.9045 31.4449 42.0536 31.7334 42.094 32.0461C42.1343 32.3587 42.0633 32.6756 41.8933 32.9411C41.4811 33.5892 41.0247 34.2661 40.5683 34.9294C40.112 35.5927 39.6099 36.2407 39.1246 36.8599C38.7702 37.3163 38.3868 37.7878 37.9746 38.2594C37.6216 38.6717 37.2231 39.1281 36.7819 39.6149C36.1628 40.2933 35.5649 40.911 34.9564 41.5149H34.9412C34.3525 42.1052 33.7242 42.6802 33.0701 43.2537C32.8771 43.4417 32.6322 43.5675 32.367 43.615C32.1018 43.6624 31.8285 43.6293 31.5823 43.5199C29.643 42.6297 27.7759 41.5901 25.9978 40.4105C26.2336 40.234 26.4693 40.0576 26.7051 39.8659C27.2056 39.4673 27.7077 39.0703 28.1777 38.6489C29.3794 39.4126 30.6243 40.106 31.9063 40.7254C32.3033 40.3572 32.6867 39.9891 33.0853 39.6057C33.7029 38.9972 34.2779 38.4131 34.8088 37.8228C35.1618 37.4547 35.5299 37.0135 35.9437 36.5419C36.2966 36.1145 36.6648 35.6718 37.0193 35.2017C37.5045 34.6115 37.9472 34.0075 38.3746 33.3884C38.6104 33.0841 38.831 32.7403 39.0516 32.4163C38.3885 31.7805 37.6791 31.1948 36.9295 30.6638C36.2194 30.1489 35.4765 29.6809 34.7054 29.2628C34.3662 29.7785 34.0132 30.2805 33.6588 30.7658C33.0411 31.6207 32.4068 32.4163 31.7588 33.183C31.4636 33.5207 31.1837 33.8311 30.919 34.1262C30.8004 34.2783 30.668 34.4061 30.5357 34.5521L30.5204 34.5674L30.5068 34.5826L30.4916 34.5963L30.4763 34.6115L30.4627 34.6267L30.4474 34.6419L30.4322 34.6556L30.4033 34.686V34.6997C28.9965 36.1815 27.4851 37.5602 25.8806 38.8253C23.4561 40.687 20.8259 42.2642 18.0417 43.526C17.7886 43.6395 17.5066 43.6721 17.2343 43.6193C16.962 43.5664 16.7127 43.4308 16.5204 43.2309C15.8708 42.6711 15.2669 42.096 14.663 41.521C14.0545 40.9323 13.4551 40.304 12.8375 39.6209C12.3811 39.1341 11.984 38.6778 11.6295 38.2655C11.2325 37.7939 10.8492 37.3223 10.481 36.866C9.99423 36.2331 9.52265 35.5988 9.05107 34.9355C8.57948 34.2722 8.13832 33.5953 7.72606 32.9472C7.40052 32.4315 7.06275 31.8823 6.72351 31.3119C6.41926 30.7521 6.10436 30.1922 5.81076 29.6385C5.42893 28.9311 5.0745 28.2085 4.73526 27.4875C4.39602 26.7664 4.10243 26.0423 3.79362 25.2908C3.2338 23.9217 2.74701 22.5221 2.31954 21.0921C1.89206 19.6622 1.53913 18.22 1.25466 16.7611C1.19928 16.4924 1.22916 16.2131 1.34016 15.9622C1.45115 15.7113 1.6377 15.5013 1.87378 15.3616C3.5891 14.1423 5.39674 13.0585 7.28031 12.1198C7.35333 12.8272 7.44306 13.5194 7.5602 14.2115C7.5891 14.4473 7.63322 14.6831 7.67734 14.9189C6.4269 15.5729 5.21688 16.3014 4.05375 17.1004C4.28954 18.2048 4.56944 19.2803 4.87825 20.3269C5.27682 21.6824 5.74846 23.0074 6.26416 24.2822C6.54407 24.9744 6.83766 25.6665 7.16169 26.3587C7.48571 27.0509 7.81124 27.7278 8.16417 28.3774C8.44408 28.9235 8.73923 29.4423 9.03435 29.9686C9.32795 30.4554 9.64284 30.9711 9.976 31.5157C10.3898 32.1638 10.802 32.7981 11.2295 33.3869C11.6569 33.9756 12.1133 34.6039 12.5849 35.2002C12.9531 35.6703 13.306 36.1129 13.6742 36.5404C14.0727 37.012 14.4561 37.4532 14.7938 37.8213C15.3399 38.4116 15.9135 39.0003 16.5326 39.6042C16.916 39.9876 17.3145 40.3557 17.6963 40.7102C19.9132 39.6438 22.0162 38.3553 23.973 36.8644C26.841 34.6896 29.3771 32.1089 31.5017 29.2034L31.5062 29.1989ZM47.7288 15.3555C47.9641 15.4968 48.1507 15.7064 48.2638 15.9564C48.3769 16.2065 48.4111 16.4851 48.3617 16.755C48.0666 18.2139 47.7136 19.6576 47.2861 21.086C46.8587 22.5145 46.3734 23.9156 45.8273 25.2847C45.7719 25.4213 45.692 25.5466 45.5914 25.6544C45.3603 25.9223 45.033 26.0886 44.6803 26.117C44.3275 26.1455 43.9778 26.0339 43.7067 25.8065C42.7111 24.9399 41.6575 24.1424 40.5531 23.4196C39.468 22.7098 38.3355 22.075 37.1637 21.5196C36.8564 21.381 36.612 21.1324 36.4786 20.8228C36.3452 20.5132 36.3324 20.1648 36.4427 19.8462C36.8834 18.6064 37.2521 17.3422 37.5471 16.0598C37.6794 15.5593 37.7829 15.0573 37.8863 14.5386C38.2256 14.6709 38.5496 14.8048 38.8889 14.9508C39.3894 15.1729 39.8898 15.4072 40.3903 15.6445C40.3173 15.9975 40.2382 16.3367 40.1545 16.6759C39.9203 17.6632 39.6541 18.6536 39.3453 19.6226C40.258 20.0942 41.157 20.6236 42.0256 21.1834C42.6889 21.6261 43.3522 22.0961 43.9866 22.5829C44.2513 21.8467 44.5022 21.0952 44.7228 20.33C45.0468 19.2834 45.3115 18.2002 45.5625 17.1034C43.6291 15.7814 41.5713 14.6513 39.4183 13.7293C38.0922 13.1562 36.7345 12.6589 35.352 12.24C34.0886 11.8584 32.8046 11.5486 31.5062 11.312C30.5935 11.1508 29.6503 11.0184 28.6919 10.915C27.7335 10.8115 26.7919 10.7522 25.8487 10.7233L25.3193 10.7081H24.2879L23.7722 10.7233C22.829 10.7522 21.8706 10.8115 20.9274 10.915C19.9843 11.0184 19.0274 11.1508 18.0995 11.312C16.817 11.5478 15.5361 11.8718 14.2537 12.24C13.7669 12.3921 13.2816 12.5442 12.7948 12.7116C12.7507 12.4317 12.7066 12.167 12.6777 11.887C12.5895 11.2542 12.5256 10.6351 12.4861 10.0007C16.4612 8.68644 20.6215 8.01874 24.8082 8.02307C29.9869 8.03017 35.1153 9.04066 39.9096 10.9986C42.6747 12.1508 45.2994 13.614 47.7334 15.3601L47.7288 15.3555ZM23.182 27.0098C22.9614 26.7299 22.7697 26.4789 22.5932 26.2583C21.1913 24.339 20.0009 22.2738 19.0427 20.0988C18.9103 19.8051 18.7764 19.51 18.6593 19.2149C18.5422 18.9198 18.4524 18.6703 18.3551 18.3904C18.3129 18.2931 18.2832 18.1909 18.2668 18.0861C18.2354 17.9129 18.2388 17.7351 18.2768 17.5632C18.3149 17.3912 18.3867 17.2286 18.4882 17.0848C18.5898 16.9409 18.7189 16.8187 18.8682 16.7252C19.0174 16.6318 19.1838 16.569 19.3575 16.5405C19.6374 16.4812 19.966 16.4371 20.3007 16.3884L21.2575 16.2545C21.8478 16.1967 22.4365 16.1526 23.0405 16.1024C23.6444 16.0522 24.2575 16.0583 24.8097 16.0583C25.3619 16.0583 25.9582 16.072 26.591 16.1024C27.1995 16.1465 27.7853 16.1907 28.3603 16.2545L29.3171 16.3884C29.6716 16.4325 29.9804 16.4767 30.2755 16.5405C30.3508 16.5527 30.4246 16.572 30.4961 16.5984C30.8295 16.7187 31.1019 16.966 31.2537 17.2863C31.4056 17.6066 31.4247 17.9739 31.3069 18.3082C31.1883 18.6125 31.0711 18.9259 30.9525 19.221C30.8338 19.5161 30.7167 19.8112 30.5843 20.1048C30.1057 21.189 29.5695 22.2467 28.9779 23.2736C28.3836 24.3078 27.7293 25.3065 27.0185 26.2644C26.7974 26.5575 26.6063 26.808 26.445 27.0159C26.194 27.3201 26.0023 27.5757 25.8365 27.7522C25.7846 27.818 25.7248 27.8773 25.6585 27.9286C25.5247 28.0414 25.3698 28.1263 25.2028 28.1785C25.0358 28.2308 24.8602 28.2492 24.686 28.2328C24.5118 28.2163 24.3426 28.1654 24.1883 28.0829C24.034 28.0003 23.8978 27.8879 23.7874 27.7522C23.5669 27.5012 23.3752 27.2654 23.1789 27.0159L23.182 27.0098Z" fill="#38CEC9"/>
</g>
<path d="M62.6713 19.1521C63.6138 17.6859 65.272 16.9528 67.6458 16.9528V20.0684C67.3666 20.0161 67.1135 19.9899 66.8866 19.9899C65.6124 19.9899 64.6175 20.3652 63.9018 21.1157C63.1862 21.8488 62.8284 22.9135 62.8284 24.3099V31.091H59.5557V17.1099H62.6713V19.1521Z" fill="#1B1E59"/>
<path d="M83.4376 24.179C83.4376 24.4059 83.4201 24.7288 83.3852 25.1477H72.415C72.607 26.1775 73.1045 26.9979 73.9074 27.6088C74.7278 28.2022 75.7401 28.499 76.9445 28.499C78.4805 28.499 79.7459 27.9928 80.7408 26.9804L82.495 28.9964C81.8667 29.747 81.0725 30.3142 80.1125 30.6982C79.1525 31.0822 78.0703 31.2742 76.8659 31.2742C75.3299 31.2742 73.9772 30.9688 72.8078 30.3579C71.6383 29.747 70.7307 28.9004 70.0848 27.8182C69.4565 26.7186 69.1423 25.4793 69.1423 24.1004C69.1423 22.739 69.4478 21.5172 70.0587 20.435C70.687 19.3353 71.551 18.4801 72.6507 17.8692C73.7503 17.2582 74.9896 16.9528 76.3685 16.9528C77.7299 16.9528 78.943 17.2582 80.0078 17.8692C81.0899 18.4626 81.9278 19.3092 82.5212 20.4088C83.1321 21.491 83.4376 22.7477 83.4376 24.179ZM76.3685 19.571C75.3212 19.571 74.431 19.8852 73.6979 20.5135C72.9823 21.1244 72.5459 21.9448 72.3888 22.9746H80.3219C80.1823 21.9622 79.7547 21.1419 79.039 20.5135C78.3234 19.8852 77.4332 19.571 76.3685 19.571Z" fill="#1B1E59"/>
<path d="M90.9012 31.2742C89.7667 31.2742 88.6583 31.1259 87.5761 30.8292C86.494 30.5324 85.63 30.1572 84.9841 29.7033L86.2409 27.2161C86.8692 27.635 87.6198 27.9753 88.4925 28.2372C89.3827 28.4815 90.2554 28.6037 91.1107 28.6037C93.0656 28.6037 94.0431 28.0888 94.0431 27.059C94.0431 26.5702 93.79 26.2299 93.2838 26.0379C92.7951 25.8459 92.0009 25.6626 90.9012 25.4881C89.7492 25.3135 88.8067 25.1128 88.0736 24.8859C87.358 24.659 86.7296 24.2662 86.1885 23.7077C85.6649 23.1317 85.4031 22.3375 85.4031 21.3252C85.4031 19.9986 85.9529 18.9426 87.0525 18.1572C88.1696 17.3542 89.6707 16.9528 91.5558 16.9528C92.5158 16.9528 93.4758 17.0662 94.4358 17.2932C95.3958 17.5026 96.1812 17.7906 96.7921 18.1572L95.5354 20.6444C94.3485 19.9462 93.0132 19.5972 91.5296 19.5972C90.5696 19.5972 89.8365 19.7455 89.3303 20.0422C88.8416 20.3215 88.5972 20.6968 88.5972 21.1681C88.5972 21.6917 88.8591 22.067 89.3827 22.2939C89.9238 22.5033 90.7529 22.7041 91.87 22.8961C92.9871 23.0706 93.9034 23.2713 94.6191 23.4982C95.3347 23.7252 95.9456 24.1092 96.4518 24.6502C96.9754 25.1913 97.2372 25.9593 97.2372 26.9542C97.2372 28.2633 96.67 29.3106 95.5354 30.0961C94.4009 30.8815 92.8561 31.2742 90.9012 31.2742Z" fill="#1B1E59"/>
<path d="M113.199 24.179C113.199 24.4059 113.181 24.7288 113.147 25.1477H102.176C102.368 26.1775 102.866 26.9979 103.669 27.6088C104.489 28.2022 105.501 28.499 106.706 28.499C108.242 28.499 109.507 27.9928 110.502 26.9804L112.256 28.9964C111.628 29.747 110.834 30.3142 109.874 30.6982C108.914 31.0822 107.832 31.2742 106.627 31.2742C105.091 31.2742 103.739 30.9688 102.569 30.3579C101.4 29.747 100.492 28.9004 99.8462 27.8182C99.2178 26.7186 98.9037 25.4793 98.9037 24.1004C98.9037 22.739 99.2091 21.5172 99.82 20.435C100.448 19.3353 101.312 18.4801 102.412 17.8692C103.512 17.2582 104.751 16.9528 106.13 16.9528C107.491 16.9528 108.704 17.2582 109.769 17.8692C110.851 18.4626 111.689 19.3092 112.283 20.4088C112.893 21.491 113.199 22.7477 113.199 24.179ZM106.13 19.571C105.083 19.571 104.192 19.8852 103.459 20.5135C102.744 21.1244 102.307 21.9448 102.15 22.9746H110.083C109.944 21.9622 109.516 21.1419 108.8 20.5135C108.085 19.8852 107.195 19.571 106.13 19.571Z" fill="#1B1E59"/>
<path d="M122.757 31.2742C121.308 31.2742 120.008 30.9688 118.856 30.3579C117.704 29.747 116.805 28.9004 116.159 27.8182C115.514 26.7186 115.191 25.4793 115.191 24.1004C115.191 22.7215 115.514 21.491 116.159 20.4088C116.805 19.3266 117.695 18.4801 118.83 17.8692C119.982 17.2582 121.291 16.9528 122.757 16.9528C124.136 16.9528 125.34 17.2321 126.37 17.7906C127.418 18.3492 128.203 19.1521 128.727 20.1993L126.213 21.6655C125.812 21.0197 125.306 20.5397 124.695 20.2255C124.101 19.8939 123.447 19.7281 122.731 19.7281C121.509 19.7281 120.497 20.1295 119.694 20.9324C118.891 21.7179 118.49 22.7739 118.49 24.1004C118.49 25.427 118.882 26.4917 119.668 27.2946C120.471 28.0801 121.492 28.4728 122.731 28.4728C123.447 28.4728 124.101 28.3157 124.695 28.0015C125.306 27.6699 125.812 27.1812 126.213 26.5353L128.727 28.0015C128.186 29.0488 127.391 29.8604 126.344 30.4364C125.314 30.995 124.119 31.2742 122.757 31.2742Z" fill="#1B1E59"/>
<path d="M145.092 17.1099V31.091H141.976V29.3106C141.452 29.939 140.798 30.4277 140.012 30.7768C139.227 31.1084 138.38 31.2742 137.473 31.2742C135.605 31.2742 134.13 30.7593 133.048 29.7295C131.983 28.6822 131.451 27.1375 131.451 25.0953V17.1099H134.724V24.6502C134.724 25.907 135.003 26.8495 135.561 27.4779C136.137 28.0888 136.949 28.3942 137.996 28.3942C139.166 28.3942 140.091 28.0364 140.772 27.3208C141.47 26.5877 141.819 25.5404 141.819 24.179V17.1099H145.092Z" fill="#1B1E59"/>
<path d="M152.492 19.1521C153.435 17.6859 155.093 16.9528 157.467 16.9528V20.0684C157.188 20.0161 156.935 19.9899 156.708 19.9899C155.433 19.9899 154.439 20.3652 153.723 21.1157C153.007 21.8488 152.649 22.9135 152.649 24.3099V31.091H149.377V17.1099H152.492V19.1521Z" fill="#1B1E59"/>
<path d="M167.993 16.9528C169.354 16.9528 170.568 17.2495 171.632 17.843C172.714 18.4364 173.561 19.2742 174.172 20.3564C174.783 21.4386 175.088 22.6866 175.088 24.1004C175.088 25.5142 174.783 26.771 174.172 27.8706C173.561 28.9528 172.714 29.7906 171.632 30.3841C170.568 30.9775 169.354 31.2742 167.993 31.2742C167.033 31.2742 166.152 31.1084 165.349 30.7768C164.563 30.4452 163.9 29.9477 163.359 29.2844V31.091H160.243V11.6641H163.516V18.8117C164.074 18.2008 164.729 17.7382 165.48 17.4241C166.248 17.1099 167.085 16.9528 167.993 16.9528ZM167.626 28.4728C168.831 28.4728 169.817 28.0713 170.585 27.2684C171.37 26.4655 171.763 25.4095 171.763 24.1004C171.763 22.7913 171.37 21.7353 170.585 20.9324C169.817 20.1295 168.831 19.7281 167.626 19.7281C166.841 19.7281 166.134 19.9113 165.506 20.2779C164.877 20.627 164.38 21.1332 164.013 21.7964C163.647 22.4597 163.464 23.2277 163.464 24.1004C163.464 24.9732 163.647 25.7412 164.013 26.4044C164.38 27.0677 164.877 27.5826 165.506 27.9492C166.134 28.2982 166.841 28.4728 167.626 28.4728Z" fill="#1B1E59"/>
<defs>
<clipPath id="clip0_162_3589">
<rect width="48" height="43.6364" fill="white" transform="translate(0.681641)"/>
</clipPath>
</defs>
</svg>
