<svg width="177" height="44" viewBox="0 0 177 44" fill="none" xmlns="http://www.w3.org/2000/svg">
<g clip-path="url(#clip0_280_1517)">
<path d="M40.1406 2.51614C40.3951 2.60574 40.6167 2.76962 40.777 2.98659C40.9373 3.20355 41.0288 3.46361 41.0396 3.73314C41.1778 5.17248 41.2368 6.61834 41.2161 8.06415C41.2009 8.72741 41.1857 9.39067 41.1415 10.0539C40.8921 9.95049 40.6563 9.84704 40.4053 9.74968C39.7724 9.5002 39.1533 9.26442 38.5189 9.04232C38.5342 8.7046 38.5494 8.38056 38.5494 8.04132C38.5631 6.9658 38.5342 5.87506 38.4459 4.77064C37.4145 4.44661 36.339 4.15149 35.2513 3.88679C33.8822 3.56276 32.513 3.29655 31.1257 3.10488C30.3453 3.00295 29.5938 2.91319 28.8727 2.84017C28.1516 2.76715 27.3834 2.72303 26.603 2.68805C25.9945 2.67283 25.424 2.65914 24.8064 2.65914L23.9074 2.67284C23.6412 2.67284 23.3323 2.68805 23.0083 2.68805C22.2279 2.71847 21.4764 2.77628 20.7386 2.84017C20.0008 2.90406 19.266 3.00295 18.4856 3.10488C17.1165 3.29655 15.7306 3.56124 14.36 3.88679C13.2692 4.15149 12.2089 4.44661 11.1653 4.77064C10.9858 7.19227 11.0501 9.62581 11.3571 12.0346C11.52 13.3821 11.7561 14.7197 12.0644 16.0416C12.2409 16.7931 12.4478 17.5446 12.6729 18.2656L12.6882 18.325L12.7018 18.3843L12.717 18.4436L12.7459 18.5014L12.7612 18.5608L12.7763 18.6201L12.7916 18.6794L12.8493 18.8407V18.8559L12.8646 18.9137L12.968 19.1936L12.9817 19.2529L13.0715 19.4887L13.0852 19.5329C13.5402 20.8521 14.0668 22.1456 14.6627 23.4075L14.6916 23.4516L14.7069 23.4972L14.7205 23.5261L14.7509 23.5703L14.7646 23.6144L14.7799 23.6585L14.8088 23.6874C15.0309 24.1437 15.2652 24.6001 15.5025 25.0565C15.6789 25.3516 15.8401 25.665 16.0029 25.9404C16.1946 26.2801 16.3716 26.5747 16.5338 26.8242C17.0343 27.635 17.5637 28.4306 18.1251 29.1974C18.6864 29.9641 19.2584 30.7003 19.8928 31.4366C20.1291 31.7165 20.3943 32.0111 20.6884 32.3205C20.9683 32.6247 21.233 32.929 21.484 33.1891C22.132 33.8524 22.809 34.4867 23.4875 35.1044L23.7674 35.3402C23.5757 35.4923 23.3841 35.6444 23.1787 35.7965C22.6478 36.1936 22.1031 36.5769 21.557 36.9603C18.6134 34.3214 16.0808 31.2572 14.0435 27.8693V27.8541L14.0283 27.8404L14.0132 27.8252C13.896 27.6335 13.7925 27.4418 13.6891 27.2806C13.5126 26.9565 13.3209 26.631 13.1597 26.3222C12.6729 25.4383 12.2302 24.5256 11.8043 23.5672C11.3783 22.6088 11.0087 21.6672 10.6695 20.724C10.1956 19.3907 9.79232 18.0334 9.46151 16.6577C8.46065 12.425 8.16212 8.05659 8.57773 3.72706C8.59019 3.45713 8.68401 3.19729 8.84692 2.9817C9.00984 2.76612 9.23421 2.60488 9.49048 2.51919C10.89 2.0476 12.32 1.63534 13.7637 1.28089C15.1784 0.956863 16.6358 0.672392 18.1251 0.456375C18.8857 0.35293 19.6859 0.264699 20.5256 0.191679C21.3365 0.117138 22.1321 0.0593291 22.9125 0.0289041C23.2076 0.0289041 23.5209 0.0136953 23.8556 0.0136953L24.814 0L25.7709 0.0136953C26.1101 0.0136953 26.4341 0.0289041 26.714 0.0289041C27.5096 0.0593291 28.3053 0.117138 29.1161 0.191679C29.9558 0.264699 30.7514 0.35293 31.5029 0.456375C33.0044 0.676956 34.4633 0.956863 35.8781 1.28089C37.3081 1.63534 38.7365 2.04152 40.1512 2.51919L40.1406 2.51614ZM31.506 29.1989C32.0369 28.4474 32.5708 27.6776 33.0531 26.885C33.2195 26.5862 33.4925 26.361 33.8176 26.2544C34.1427 26.1478 34.496 26.1677 34.8071 26.31C37.3673 27.5337 39.6914 29.1997 41.6725 31.2313C41.9043 31.4449 42.0534 31.7334 42.0937 32.0461C42.1341 32.3587 42.0631 32.6756 41.8931 32.9411C41.4808 33.5892 41.0245 34.2661 40.5681 34.9294C40.1117 35.5927 39.6097 36.2407 39.1244 36.8599C38.77 37.3163 38.3866 37.7878 37.9743 38.2594C37.6214 38.6717 37.2229 39.1281 36.7817 39.6149C36.1625 40.2933 35.5647 40.911 34.9562 41.5149H34.941C34.3522 42.1052 33.724 42.6802 33.0699 43.2537C32.8769 43.4417 32.632 43.5675 32.3668 43.615C32.1016 43.6624 31.8282 43.6293 31.582 43.5199C29.6428 42.6297 27.7757 41.5901 25.9975 40.4105C26.2333 40.234 26.4691 40.0576 26.7049 39.8659C27.2054 39.4673 27.7074 39.0703 28.1775 38.6489C29.3791 39.4126 30.624 40.106 31.906 40.7254C32.3031 40.3572 32.6864 39.9891 33.085 39.6057C33.7026 38.9972 34.2777 38.4131 34.8086 37.8228C35.1615 37.4547 35.5297 37.0135 35.9434 36.5419C36.2964 36.1145 36.6646 35.6718 37.019 35.2017C37.5043 34.6115 37.9469 34.0075 38.3744 33.3884C38.6102 33.0841 38.8308 32.7403 39.0514 32.4163C38.3883 31.7805 37.6789 31.1948 36.9292 30.6638C36.2191 30.1489 35.4762 29.6809 34.7052 29.2628C34.366 29.7785 34.013 30.2805 33.6585 30.7658C33.0409 31.6207 32.4066 32.4163 31.7585 33.183C31.4634 33.5207 31.1835 33.8311 30.9188 34.1262C30.8001 34.2783 30.6678 34.4061 30.5354 34.5521L30.5202 34.5674L30.5065 34.5826L30.4913 34.5963L30.4761 34.6115L30.4624 34.6267L30.4472 34.6419L30.432 34.6556L30.4031 34.686V34.6997C28.9963 36.1815 27.4848 37.5602 25.8804 38.8253C23.4559 40.687 20.8257 42.2642 18.0414 43.526C17.7883 43.6395 17.5064 43.6721 17.2341 43.6193C16.9618 43.5664 16.7125 43.4308 16.5202 43.2309C15.8706 42.6711 15.2667 42.096 14.6627 41.521C14.0542 40.9323 13.4549 40.304 12.8372 39.6209C12.3809 39.1341 11.9837 38.6778 11.6293 38.2655C11.2322 37.7939 10.8489 37.3223 10.4808 36.866C9.99398 36.2331 9.52241 35.5988 9.05082 34.9355C8.57923 34.2722 8.13808 33.5953 7.72582 32.9472C7.40027 32.4315 7.0625 31.8823 6.72327 31.3119C6.41901 30.7521 6.10412 30.1922 5.81051 29.6385C5.42868 28.9311 5.07426 28.2085 4.73502 27.4875C4.39578 26.7664 4.10219 26.0423 3.79337 25.2908C3.23355 23.9217 2.74676 22.5221 2.31929 21.0921C1.89182 19.6622 1.53889 18.22 1.25442 16.7611C1.19904 16.4924 1.22892 16.2131 1.33991 15.9622C1.45091 15.7113 1.63745 15.5013 1.87354 15.3616C3.58885 14.1423 5.3965 13.0585 7.28007 12.1198C7.35309 12.8272 7.44282 13.5194 7.55995 14.2115C7.58886 14.4473 7.63298 14.6831 7.67709 14.9189C6.42665 15.5729 5.21663 16.3014 4.0535 17.1004C4.28929 18.2048 4.56919 19.2803 4.87801 20.3269C5.27657 21.6824 5.74822 23.0074 6.26392 24.2822C6.54383 24.9744 6.83742 25.6665 7.16144 26.3587C7.48547 27.0509 7.81099 27.7278 8.16392 28.3774C8.44383 28.9235 8.73899 29.4423 9.03411 29.9686C9.32771 30.4554 9.6426 30.9711 9.97575 31.5157C10.3895 32.1638 10.8018 32.7981 11.2292 33.3869C11.6567 33.9756 12.1131 34.6039 12.5847 35.2002C12.9528 35.6703 13.3058 36.1129 13.6739 36.5404C14.0725 37.012 14.4558 37.4532 14.7935 37.8213C15.3397 38.4116 15.9132 39.0003 16.5324 39.6042C16.9157 39.9876 17.3143 40.3557 17.6961 40.7102C19.913 39.6438 22.0159 38.3553 23.9727 36.8644C26.8407 34.6896 29.3769 32.1089 31.5014 29.2034L31.506 29.1989ZM47.7286 15.3555C47.9639 15.4968 48.1505 15.7064 48.2636 15.9564C48.3766 16.2065 48.4108 16.4851 48.3615 16.755C48.0663 18.2139 47.7134 19.6576 47.2859 21.086C46.8584 22.5145 46.3732 23.9156 45.827 25.2847C45.7717 25.4213 45.6917 25.5466 45.5912 25.6544C45.3601 25.9223 45.0327 26.0886 44.68 26.117C44.3273 26.1455 43.9775 26.0339 43.7064 25.8065C42.7109 24.9399 41.6572 24.1424 40.5529 23.4196C39.4677 22.7098 38.3353 22.075 37.1635 21.5196C36.8562 21.381 36.6118 21.1324 36.4783 20.8228C36.3449 20.5132 36.3321 20.1648 36.4425 19.8462C36.8831 18.6064 37.2519 17.3422 37.5468 16.0598C37.6792 15.5593 37.7826 15.0573 37.8861 14.5386C38.2253 14.6709 38.5494 14.8048 38.8886 14.9508C39.3891 15.1729 39.8896 15.4072 40.3901 15.6445C40.317 15.9975 40.238 16.3367 40.1543 16.6759C39.92 17.6632 39.6538 18.6536 39.345 19.6226C40.2578 20.0942 41.1568 20.6236 42.0254 21.1834C42.6887 21.6261 43.3519 22.0961 43.9863 22.5829C44.251 21.8467 44.502 21.0952 44.7226 20.33C45.0466 19.2834 45.3113 18.2002 45.5623 17.1034C43.6289 15.7814 41.5711 14.6513 39.418 13.7293C38.0919 13.1562 36.7343 12.6589 35.3517 12.24C34.0883 11.8584 32.8043 11.5486 31.506 11.312C30.5932 11.1508 29.65 11.0184 28.6917 10.915C27.7333 10.8115 26.7916 10.7522 25.8485 10.7233L25.3191 10.7081H24.2877L23.772 10.7233C22.8288 10.7522 21.8704 10.8115 20.9272 10.915C19.984 11.0184 19.0272 11.1508 18.0992 11.312C16.8168 11.5478 15.5359 11.8718 14.2535 12.24C13.7667 12.3921 13.2814 12.5442 12.7946 12.7116C12.7505 12.4317 12.7064 12.167 12.6775 11.887C12.5892 11.2542 12.5254 10.6351 12.4858 10.0007C16.4609 8.68644 20.6212 8.01874 24.8079 8.02307C29.9867 8.03017 35.115 9.04066 39.9094 10.9986C42.6744 12.1508 45.2992 13.614 47.7331 15.3601L47.7286 15.3555ZM23.1817 27.0098C22.9612 26.7299 22.7695 26.4789 22.593 26.2583C21.1911 24.339 20.0006 22.2738 19.0424 20.0988C18.9101 19.8051 18.7762 19.51 18.6591 19.2149C18.5419 18.9198 18.4522 18.6703 18.3548 18.3904C18.3127 18.2931 18.283 18.1909 18.2666 18.0861C18.2352 17.9129 18.2386 17.7351 18.2766 17.5632C18.3146 17.3912 18.3865 17.2286 18.488 17.0848C18.5895 16.9409 18.7187 16.8187 18.8679 16.7252C19.0172 16.6318 19.1835 16.569 19.3573 16.5405C19.6372 16.4812 19.9657 16.4371 20.3004 16.3884L21.2573 16.2545C21.8475 16.1967 22.4363 16.1526 23.0402 16.1024C23.6442 16.0522 24.2572 16.0583 24.8094 16.0583C25.3616 16.0583 25.958 16.072 26.5908 16.1024C27.1993 16.1465 27.785 16.1907 28.3601 16.2545L29.3169 16.3884C29.6713 16.4325 29.9802 16.4767 30.2753 16.5405C30.3505 16.5527 30.4244 16.572 30.4958 16.5984C30.8293 16.7187 31.1016 16.966 31.2535 17.2863C31.4054 17.6066 31.4245 17.9739 31.3067 18.3082C31.188 18.6125 31.0709 18.9259 30.9522 19.221C30.8336 19.5161 30.7164 19.8112 30.5841 20.1048C30.1055 21.189 29.5692 22.2467 28.9776 23.2736C28.3833 24.3078 27.7291 25.3065 27.0183 26.2644C26.7972 26.5575 26.606 26.808 26.4448 27.0159C26.1938 27.3201 26.0021 27.5757 25.8363 27.7522C25.7844 27.818 25.7246 27.8773 25.6583 27.9286C25.5245 28.0414 25.3696 28.1263 25.2026 28.1785C25.0356 28.2308 24.8599 28.2492 24.6857 28.2328C24.5116 28.2163 24.3424 28.1654 24.1881 28.0829C24.0338 28.0003 23.8975 27.8879 23.7872 27.7522C23.5666 27.5012 23.3749 27.2654 23.1787 27.0159L23.1817 27.0098Z" fill="#BBC3CF"/>
</g>
<path d="M62.6717 19.152C63.6142 17.6858 65.2724 16.9527 67.6462 16.9527V20.0684C67.3669 20.016 67.1138 19.9898 66.8869 19.9898C65.6128 19.9898 64.6178 20.3651 63.9022 21.1156C63.1866 21.8487 62.8288 22.9135 62.8288 24.3098V31.0909H59.556V17.1098H62.6717V19.152Z" fill="#BBC3CF"/>
<path d="M83.4379 24.1789C83.4379 24.4058 83.4205 24.7287 83.3856 25.1476H72.4154C72.6074 26.1775 73.1048 26.9978 73.9078 27.6087C74.7281 28.2022 75.7405 28.4989 76.9448 28.4989C78.4809 28.4989 79.7463 27.9927 80.7412 26.9804L82.4954 28.9964C81.867 29.7469 81.0728 30.3142 80.1128 30.6982C79.1528 31.0822 78.0707 31.2742 76.8663 31.2742C75.3303 31.2742 73.9776 30.9687 72.8081 30.3578C71.6387 29.7469 70.731 28.9004 70.0852 27.8182C69.4568 26.7185 69.1427 25.4793 69.1427 24.1004C69.1427 22.7389 69.4481 21.5171 70.059 20.4349C70.6874 19.3353 71.5514 18.48 72.651 17.8691C73.7507 17.2582 74.9899 16.9527 76.3688 16.9527C77.7303 16.9527 78.9434 17.2582 80.0081 17.8691C81.0903 18.4625 81.9281 19.3091 82.5216 20.4087C83.1325 21.4909 83.4379 22.7476 83.4379 24.1789ZM76.3688 19.5709C75.3216 19.5709 74.4314 19.8851 73.6983 20.5135C72.9827 21.1244 72.5463 21.9447 72.3892 22.9745H80.3223C80.1827 21.9622 79.755 21.1418 79.0394 20.5135C78.3238 19.8851 77.4336 19.5709 76.3688 19.5709Z" fill="#BBC3CF"/>
<path d="M90.9016 31.2742C89.7671 31.2742 88.6587 31.1258 87.5765 30.8291C86.4943 30.5324 85.6303 30.1571 84.9845 29.7033L86.2412 27.216C86.8696 27.6349 87.6201 27.9753 88.4929 28.2371C89.3831 28.4815 90.2558 28.6036 91.1111 28.6036C93.066 28.6036 94.0434 28.0887 94.0434 27.0589C94.0434 26.5702 93.7903 26.2298 93.2841 26.0378C92.7954 25.8458 92.0012 25.6625 90.9016 25.488C89.7496 25.3135 88.8071 25.1127 88.074 24.8858C87.3583 24.6589 86.73 24.2662 86.1889 23.7076C85.6652 23.1316 85.4034 22.3375 85.4034 21.3251C85.4034 19.9985 85.9532 18.9425 87.0529 18.1571C88.17 17.3542 89.6711 16.9527 91.5561 16.9527C92.5161 16.9527 93.4761 17.0662 94.4361 17.2931C95.3961 17.5025 96.1816 17.7905 96.7925 18.1571L95.5358 20.6444C94.3489 19.9462 93.0136 19.5971 91.53 19.5971C90.57 19.5971 89.8369 19.7455 89.3307 20.0422C88.842 20.3215 88.5976 20.6967 88.5976 21.168C88.5976 21.6916 88.8594 22.0669 89.3831 22.2938C89.9241 22.5033 90.7532 22.704 91.8703 22.896C92.9874 23.0705 93.9038 23.2713 94.6194 23.4982C95.3351 23.7251 95.946 24.1091 96.4521 24.6502C96.9758 25.1913 97.2376 25.9593 97.2376 26.9542C97.2376 28.2633 96.6703 29.3105 95.5358 30.096C94.4012 30.8815 92.8565 31.2742 90.9016 31.2742Z" fill="#BBC3CF"/>
<path d="M113.199 24.1789C113.199 24.4058 113.182 24.7287 113.147 25.1476H102.177C102.369 26.1775 102.866 26.9978 103.669 27.6087C104.489 28.2022 105.502 28.4989 106.706 28.4989C108.242 28.4989 109.508 27.9927 110.503 26.9804L112.257 28.9964C111.628 29.7469 110.834 30.3142 109.874 30.6982C108.914 31.0822 107.832 31.2742 106.628 31.2742C105.092 31.2742 103.739 30.9687 102.569 30.3578C101.4 29.7469 100.492 28.9004 99.8466 27.8182C99.2182 26.7185 98.904 25.4793 98.904 24.1004C98.904 22.7389 99.2095 21.5171 99.8204 20.4349C100.449 19.3353 101.313 18.48 102.412 17.8691C103.512 17.2582 104.751 16.9527 106.13 16.9527C107.492 16.9527 108.705 17.2582 109.769 17.8691C110.852 18.4625 111.689 19.3091 112.283 20.4087C112.894 21.4909 113.199 22.7476 113.199 24.1789ZM106.13 19.5709C105.083 19.5709 104.193 19.8851 103.46 20.5135C102.744 21.1244 102.308 21.9447 102.151 22.9745H110.084C109.944 21.9622 109.516 21.1418 108.801 20.5135C108.085 19.8851 107.195 19.5709 106.13 19.5709Z" fill="#BBC3CF"/>
<path d="M122.758 31.2742C121.309 31.2742 120.008 30.9687 118.856 30.3578C117.704 29.7469 116.806 28.9004 116.16 27.8182C115.514 26.7185 115.191 25.4793 115.191 24.1004C115.191 22.7215 115.514 21.4909 116.16 20.4087C116.806 19.3265 117.696 18.48 118.83 17.8691C119.982 17.2582 121.291 16.9527 122.758 16.9527C124.136 16.9527 125.341 17.232 126.371 17.7905C127.418 18.3491 128.203 19.152 128.727 20.1993L126.214 21.6655C125.812 21.0196 125.306 20.5396 124.695 20.2255C124.102 19.8938 123.447 19.728 122.731 19.728C121.51 19.728 120.497 20.1295 119.694 20.9324C118.891 21.7178 118.49 22.7738 118.49 24.1004C118.49 25.4269 118.883 26.4916 119.668 27.2945C120.471 28.08 121.492 28.4727 122.731 28.4727C123.447 28.4727 124.102 28.3156 124.695 28.0015C125.306 27.6698 125.812 27.1811 126.214 26.5353L128.727 28.0015C128.186 29.0487 127.392 29.8604 126.344 30.4364C125.315 30.9949 124.119 31.2742 122.758 31.2742Z" fill="#BBC3CF"/>
<path d="M145.092 17.1098V31.0909H141.976V29.3105C141.453 29.9389 140.798 30.4276 140.013 30.7767C139.227 31.1084 138.381 31.2742 137.473 31.2742C135.605 31.2742 134.131 30.7593 133.048 29.7295C131.984 28.6822 131.451 27.1375 131.451 25.0953V17.1098H134.724V24.6502C134.724 25.9069 135.003 26.8495 135.562 27.4778C136.138 28.0887 136.949 28.3942 137.997 28.3942C139.166 28.3942 140.091 28.0364 140.772 27.3207C141.47 26.5876 141.819 25.5404 141.819 24.1789V17.1098H145.092Z" fill="#BBC3CF"/>
<path d="M152.493 19.152C153.435 17.6858 155.093 16.9527 157.467 16.9527V20.0684C157.188 20.016 156.935 19.9898 156.708 19.9898C155.434 19.9898 154.439 20.3651 153.723 21.1156C153.008 21.8487 152.65 22.9135 152.65 24.3098V31.0909H149.377V17.1098H152.493V19.152Z" fill="#BBC3CF"/>
<path d="M167.993 16.9527C169.355 16.9527 170.568 17.2495 171.633 17.8429C172.715 18.4364 173.561 19.2742 174.172 20.3564C174.783 21.4385 175.089 22.6865 175.089 24.1004C175.089 25.5142 174.783 26.7709 174.172 27.8705C173.561 28.9527 172.715 29.7906 171.633 30.384C170.568 30.9775 169.355 31.2742 167.993 31.2742C167.033 31.2742 166.152 31.1084 165.349 30.7767C164.564 30.4451 163.9 29.9476 163.359 29.2844V31.0909H160.244V11.664H163.516V18.8116C164.075 18.2007 164.729 17.7382 165.48 17.424C166.248 17.1098 167.086 16.9527 167.993 16.9527ZM167.627 28.4727C168.831 28.4727 169.817 28.0713 170.585 27.2684C171.371 26.4655 171.764 25.4095 171.764 24.1004C171.764 22.7913 171.371 21.7353 170.585 20.9324C169.817 20.1295 168.831 19.728 167.627 19.728C166.841 19.728 166.134 19.9113 165.506 20.2778C164.878 20.6269 164.38 21.1331 164.014 21.7964C163.647 22.4596 163.464 23.2276 163.464 24.1004C163.464 24.9731 163.647 25.7411 164.014 26.4044C164.38 27.0676 164.878 27.5825 165.506 27.9491C166.134 28.2982 166.841 28.4727 167.627 28.4727Z" fill="#BBC3CF"/>
<defs>
<clipPath id="clip0_280_1517">
<rect width="48" height="43.6364" fill="white" transform="translate(0.681885)"/>
</clipPath>
</defs>
</svg>
