<svg width="877" height="48" viewBox="0 0 877 48" fill="none" xmlns="http://www.w3.org/2000/svg">
<path d="M75.055 29.1709C75.055 31.4516 74.5197 33.1273 73.4492 34.1978C72.3786 35.2684 70.7262 35.8036 68.4921 35.8036C66.2812 35.8036 63.9306 35.6873 61.4404 35.4546V30.7418C63.2557 30.8582 65.1175 30.9164 67.0259 30.9164C67.5612 30.9164 67.9801 30.7651 68.2826 30.4626C68.6084 30.1367 68.7713 29.7062 68.7713 29.1709V15.9055H64.2332V11.0182H75.055V29.1709Z" fill="#110F14"/>
<path d="M90.7627 35.4546H78.1954V30.5673H81.3372V15.9055H78.1954V11.0182H90.7627V15.9055H87.6209V30.5673H90.7627V35.4546Z" fill="#110F14"/>
<path d="M114.847 34.9309C109.401 35.5127 104.398 35.8036 99.8363 35.8036C97.5556 35.8036 95.88 35.2684 94.8094 34.1978C93.7389 33.1273 93.2036 31.4516 93.2036 29.1709V18C93.2036 15.5564 93.7505 13.7876 94.8443 12.6938C95.9614 11.5767 97.7418 11.0182 100.185 11.0182H112.753V15.9055H101.582C100.185 15.9055 99.4873 16.6036 99.4873 18V29.1709C99.4873 29.7062 99.6385 30.1367 99.9411 30.4626C100.267 30.7651 100.697 30.9164 101.233 30.9164C103.909 30.9164 106.353 30.8582 108.564 30.7418V25.68H104.025V21.4909H114.847V34.9309Z" fill="#110F14"/>
<path d="M139.29 34.9309C133.845 35.5127 128.841 35.8036 124.28 35.8036C121.999 35.8036 120.323 35.2684 119.253 34.1978C118.182 33.1273 117.647 31.4516 117.647 29.1709V18C117.647 15.5564 118.194 13.7876 119.288 12.6938C120.405 11.5767 122.185 11.0182 124.629 11.0182H137.196V15.9055H126.025C124.629 15.9055 123.93 16.6036 123.93 18V29.1709C123.93 29.7062 124.082 30.1367 124.384 30.4626C124.71 30.7651 125.141 30.9164 125.676 30.9164C128.352 30.9164 130.796 30.8582 133.007 30.7418V25.68H128.469V21.4909H139.29V34.9309Z" fill="#110F14"/>
<path d="M149.072 30.5673H161.814V35.4546H142.788V11.0182H149.072V30.5673Z" fill="#110F14"/>
<path d="M183.64 35.4546H164.265V11.0182H183.64V15.9055H170.549V20.6182H180.847V25.5055H170.549V30.5673H183.64V35.4546Z" fill="#110F14"/>
<g clip-path="url(#clip0_162_3585)">
<path fill-rule="evenodd" clip-rule="evenodd" d="M2.65605 8.33013C3.3647 8.3332 4.04341 8.61609 4.54451 9.11719C5.0456 9.61828 5.32851 10.297 5.33158 11.0057C5.35035 11.7005 5.63959 12.3605 6.13766 12.8453C6.63574 13.3301 7.30332 13.6014 7.99837 13.6014C8.69343 13.6014 9.36102 13.3301 9.85909 12.8453C10.3572 12.3605 10.6464 11.7005 10.6652 11.0057V2.67553C10.6682 1.96688 10.9511 1.28812 11.4521 0.78703C11.9532 0.285935 12.632 0.00307222 13.3407 0C14.0466 0.00665222 14.7214 0.291222 15.219 0.792042C15.7165 1.29286 15.9966 1.96958 15.9987 2.67553V20.1647C15.989 20.521 16.0509 20.8756 16.1806 21.2076C16.3103 21.5395 16.5052 21.8421 16.7538 22.0975C17.0024 22.3529 17.2996 22.5559 17.6279 22.6945C17.9563 22.8331 18.309 22.9045 18.6654 22.9045C19.0218 22.9045 19.3746 22.8331 19.703 22.6945C20.0313 22.5559 20.3286 22.3529 20.5772 22.0975C20.8258 21.8421 21.0206 21.5395 21.1503 21.2076C21.28 20.8756 21.3419 20.521 21.3322 20.1647V11.0057C21.3353 10.297 21.6182 9.61828 22.1193 9.11719C22.6204 8.61609 23.2991 8.3332 24.0078 8.33013C24.7137 8.33678 25.3885 8.62138 25.886 9.1222C26.3836 9.62302 26.6638 10.2997 26.6658 11.0057V20.1647C26.6658 20.8718 26.9467 21.5498 27.4466 22.0498C27.9466 22.5497 28.6245 22.8305 29.3316 22.8305C30.0386 22.8305 30.7167 22.5497 31.2166 22.0498C31.7165 21.5498 31.9974 20.8718 31.9974 20.1647V2.67553C32.0005 1.96655 32.2836 1.28749 32.7851 0.786341C33.2867 0.285191 33.9658 0.00256028 34.6748 0C35.3815 0.00360393 36.058 0.287251 36.5559 0.788788C37.0538 1.29032 37.3325 1.96883 37.331 2.67553V11.0057C37.3497 11.7005 37.6389 12.3605 38.137 12.8453C38.635 13.3301 39.3026 13.6014 39.9977 13.6014C40.6927 13.6014 41.3604 13.3301 41.8585 12.8453C42.3565 12.3605 42.6457 11.7005 42.6645 11.0057C42.6675 10.2967 42.9507 9.61765 43.4522 9.1165C43.9537 8.61535 44.633 8.33269 45.342 8.33013C46.0487 8.33374 46.7251 8.61741 47.223 9.11894C47.7209 9.62048 47.9996 10.299 47.998 11.0057V37.0138C47.9955 37.7174 47.7148 38.3915 47.2172 38.8891C46.7197 39.3866 46.0456 39.6673 45.342 39.6699C44.636 39.6684 43.9591 39.3887 43.4579 38.8915C42.9567 38.3944 42.6716 37.7197 42.6645 37.0138C42.6741 36.6575 42.6123 36.3029 42.4826 35.971C42.3529 35.639 42.158 35.3364 41.9094 35.081C41.6608 34.8256 41.3635 34.6226 41.0352 34.484C40.7069 34.3454 40.3541 34.274 39.9977 34.274C39.6413 34.274 39.2886 34.3454 38.9602 34.484C38.6319 34.6226 38.3346 34.8256 38.086 35.081C37.8374 35.3364 37.6425 35.639 37.5128 35.971C37.3831 36.3029 37.3214 36.6575 37.331 37.0138V45.3342C37.3315 45.6832 37.2631 46.0289 37.1298 46.3515C36.9966 46.6741 36.801 46.9673 36.5543 47.2141C36.3075 47.461 36.0145 47.6569 35.692 47.7904C35.3695 47.9239 35.0239 47.9925 34.6748 47.9922C33.9679 47.9933 33.2895 47.7141 32.788 47.2159C32.2865 46.7177 32.0029 46.0411 31.9993 45.3342V27.8216C31.9993 27.1146 31.7185 26.4366 31.2186 25.9366C30.7186 25.4367 30.0406 25.1558 29.3336 25.1558C28.6265 25.1558 27.9485 25.4367 27.4485 25.9366C26.9486 26.4366 26.6677 27.1146 26.6677 27.8216V37.0002C26.6616 37.703 26.3796 38.3754 25.8823 38.8722C25.3851 39.3691 24.7126 39.6506 24.0098 39.6562C23.3041 39.6542 22.6277 39.3743 22.1269 38.8772C21.6261 38.3801 21.3414 37.7057 21.3342 37.0002V27.8216C21.3155 27.1268 21.0262 26.4668 20.5281 25.982C20.0301 25.4972 19.3625 25.2259 18.6674 25.2259C17.9724 25.2259 17.3047 25.4972 16.8066 25.982C16.3086 26.4668 16.0194 27.1268 16.0006 27.8216V45.3342C15.9986 46.0385 15.7179 46.7134 15.2198 47.2114C14.7218 47.7095 14.0469 47.9902 13.3426 47.9922C12.6356 47.9938 11.9568 47.7148 11.4552 47.2165C10.9536 46.7182 10.6702 46.0412 10.6671 45.3342V37.006C10.6767 36.6497 10.6148 36.2952 10.4851 35.9632C10.3554 35.6312 10.1606 35.3286 9.91201 35.0732C9.66342 34.8178 9.36614 34.6148 9.0378 34.4762C8.70946 34.3376 8.35667 34.2662 8.00028 34.2662C7.64388 34.2662 7.29109 34.3376 6.96275 34.4762C6.63441 34.6148 6.33722 34.8178 6.08864 35.0732C5.84005 35.3286 5.64512 35.6312 5.51543 35.9632C5.38574 36.2952 5.32386 36.6497 5.33349 37.006C5.32632 37.7116 5.04157 38.3859 4.5408 38.8831C4.04004 39.3802 3.36357 39.6601 2.65795 39.6621C1.95507 39.6565 1.28258 39.3749 0.785367 38.8781C0.288154 38.3812 0.00610335 37.7089 0 37.006V11.0057C0.00201638 10.2997 0.282125 9.62302 0.779666 9.1222C1.27721 8.62138 1.95203 8.33678 2.65795 8.33013H2.65605ZM10.6652 18.6762C10.6748 18.3199 10.6129 17.9653 10.4832 17.6334C10.3535 17.3014 10.1586 16.9988 9.91001 16.7434C9.66143 16.488 9.36424 16.285 9.0359 16.1464C8.70756 16.0078 8.35477 15.9364 7.99837 15.9364C7.64198 15.9364 7.28919 16.0078 6.96085 16.1464C6.63251 16.285 6.33523 16.488 6.08664 16.7434C5.83806 16.9988 5.64322 17.3014 5.51353 17.6334C5.38384 17.9653 5.32196 18.3199 5.33158 18.6762V29.3433C5.35035 30.0381 5.63959 30.6981 6.13766 31.1829C6.63574 31.6677 7.30332 31.939 7.99837 31.939C8.69343 31.939 9.36102 31.6677 9.85909 31.1829C10.3572 30.6981 10.6464 30.0381 10.6652 29.3433V18.6762ZM37.3232 29.3433V18.6762C37.3136 18.3199 37.3753 17.9653 37.505 17.6334C37.6347 17.3014 37.8297 16.9988 38.0782 16.7434C38.3268 16.488 38.6241 16.285 38.9524 16.1464C39.2808 16.0078 39.6336 15.9364 39.99 15.9364C40.3464 15.9364 40.6991 16.0078 41.0274 16.1464C41.3557 16.285 41.653 16.488 41.9016 16.7434C42.1502 16.9988 42.3451 17.3014 42.4748 17.6334C42.6045 17.9653 42.6663 18.3199 42.6567 18.6762V29.3433C42.6379 30.0381 42.3488 30.6981 41.8507 31.1829C41.3526 31.6677 40.685 31.939 39.99 31.939C39.2949 31.939 38.6272 31.6677 38.1292 31.1829C37.6311 30.6981 37.342 30.0381 37.3232 29.3433Z" fill="#E15539"/>
</g>
<path d="M296.121 16.5484C296.121 24.4029 304.564 25.4633 304.564 31.1185C304.564 33.0822 303.7 33.7891 302.326 33.7891C300.951 33.7891 300.087 33.0822 300.087 31.1185V29.1549H296.003V30.8436C296.003 35.2422 298.202 37.7556 302.444 37.7556C306.685 37.7556 308.884 35.2422 308.884 30.8436C308.884 22.9891 300.441 21.9287 300.441 16.2734C300.441 14.3098 301.226 13.5636 302.601 13.5636C303.975 13.5636 304.761 14.3098 304.761 16.2734V17.4124H308.845V16.5484C308.845 12.1498 306.685 9.63635 302.483 9.63635C298.281 9.63635 296.121 12.1498 296.121 16.5484Z" fill="#15003E"/>
<path d="M315.136 37.4414H319.456V28.3302L324.915 9.95053H320.791L317.492 22.4785L314.194 9.95053H309.677L315.136 28.3302V37.4414Z" fill="#15003E"/>
<path d="M332.632 9.95053H326.623V37.4414H330.393V18.0014L333.613 37.4414H337.698L340.682 17.7265V37.4414H344.767V9.95053H338.758L335.813 29.4691L332.632 9.95053Z" fill="#15003E"/>
<path d="M346.652 13.8778H351.169V37.4414H355.489V13.8778H360.005V9.95053H346.652V13.8778Z" fill="#15003E"/>
<path d="M375.339 37.4414C374.907 36.4204 374.868 35.4385 374.868 34.1033V29.8618C374.868 26.9949 374.161 24.9134 372.001 24.0102C373.925 23.1069 374.829 21.2611 374.829 18.4334V16.2734C374.829 12.032 372.904 9.95053 368.427 9.95053H361.908V37.4414H366.228V26.2487H367.72C369.684 26.2487 370.548 27.1913 370.548 29.744V34.064C370.548 36.3025 370.705 36.7345 370.941 37.4414H375.339ZM368.309 13.8778C369.841 13.8778 370.509 14.7418 370.509 16.7054V19.4153C370.509 21.6145 369.527 22.3214 367.917 22.3214H366.228V13.8778H368.309Z" fill="#15003E"/>
<path d="M377.709 37.4414H382.029V9.95053H377.709V37.4414Z" fill="#15003E"/>
<path d="M393.631 27.1913V31.1185C393.631 33.0822 392.767 33.7891 391.393 33.7891C390.018 33.7891 389.154 33.0822 389.154 31.1185V16.2734C389.154 14.3098 390.018 13.5636 391.393 13.5636C392.767 13.5636 393.631 14.3098 393.631 16.2734V19.2189H397.716V16.5484C397.716 12.1498 395.516 9.63635 391.275 9.63635C387.033 9.63635 384.834 12.1498 384.834 16.5484V30.8436C384.834 35.2422 387.033 37.7556 391.275 37.7556C395.516 37.7556 397.716 35.2422 397.716 30.8436V27.1913H393.631Z" fill="#15003E"/>
<g clip-path="url(#clip1_162_3585)">
<path fill-rule="evenodd" clip-rule="evenodd" d="M258.483 15.8351L256.123 19.9163L253.876 16.02L256.225 11.9389H272.632L276.116 5.89636H252.739L248.132 13.887C251.588 19.857 255.038 25.8271 258.483 31.7972H265.451C263.701 28.7681 261.952 25.7395 260.204 22.7114L259.719 21.8731H275.687L282.555 33.7644L275.687 45.6365H250.493L243.695 33.6499L247.109 27.7219L249.369 31.6166L248.147 33.7497L252.753 41.7403H273.428L278.049 33.7497L273.443 25.7591H266.475C267.953 28.3331 269.432 30.9066 270.912 33.4796L271.079 33.7453L269.956 35.6934H256.237C252.084 28.5127 247.937 21.3373 243.795 14.1673L243.64 13.8826L250.493 1.99133H282.881L274.896 15.8351H258.483Z" fill="#7F46F0"/>
</g>
<g clip-path="url(#clip2_162_3585)">
<path fill-rule="evenodd" clip-rule="evenodd" d="M484.425 47.0853C489.62 46.4788 494.458 44.1369 498.156 40.4386C501.854 36.7403 504.196 31.9021 504.803 26.7073H496.072C495.521 29.5903 494.116 32.2411 492.039 34.3149C489.962 36.3887 487.309 37.7896 484.425 38.3356V47.0853Z" fill="#F7936F"/>
<path fill-rule="evenodd" clip-rule="evenodd" d="M492.181 3.24608L492.236 3.21011C497.885 -0.0359779 502.453 -0.990521 504.58 1.13818C510.597 7.1531 493.629 25.8626 488.603 30.8889C485.58 33.9205 482.377 36.7665 479.011 39.4113V47.0796C476.304 46.7723 473.675 45.9834 471.246 44.7501L471.191 44.7861C465.542 48.0322 460.975 48.9867 458.847 46.8693C455.93 43.9528 459.343 37.239 460.956 34.4683C459.731 32.0366 458.942 29.4083 458.627 26.7035H467.377C467.759 28.7342 468.569 30.6607 469.751 32.3554C470.934 34.0501 472.462 35.4746 474.236 36.5345C473.227 37.2675 472.2 37.9644 471.136 38.6178C469.577 39.6083 467.964 40.5438 466.293 41.3866C464.986 40.2289 463.817 38.9243 462.809 37.4985C461.047 40.8923 460.46 43.3865 461.396 44.3164C465.413 48.2935 483.48 31.6976 486.452 28.7261C489.615 25.5667 492.574 22.2091 495.311 18.6735C494.409 16.3688 492.936 14.3313 491.03 12.7527C489.124 11.174 486.848 10.1061 484.416 9.64925V0.899554C487.123 1.20412 489.753 1.99317 492.181 3.22902V3.24608ZM500.618 10.492C502.379 7.0982 502.966 4.60398 502.031 3.67409C501.095 2.74421 498.622 3.34457 495.226 5.10587C497.313 6.58735 499.136 8.41016 500.618 10.4977V10.492Z" fill="#F16063"/>
<path fill-rule="evenodd" clip-rule="evenodd" d="M479.015 0.916626C473.82 1.52353 468.982 3.86584 465.283 7.56443C461.585 11.263 459.243 16.1014 458.637 21.2965H467.386C467.93 18.4131 469.33 15.7606 471.405 13.6857C473.479 11.6108 476.131 10.21 479.015 9.66627V0.916626Z" fill="#F7936F"/>
</g>
<path d="M545.329 29.5568C545.329 30.5682 545.136 31.5228 544.75 32.4205C544.375 33.3068 543.852 34.0853 543.182 34.7557C542.523 35.4148 541.744 35.9375 540.847 36.3239C539.96 36.6989 539.011 36.8864 538 36.8864C537.091 36.8864 536.216 36.7273 535.375 36.4091C534.545 36.0909 533.795 35.625 533.125 35.0114C532.454 35.625 531.699 36.0909 530.858 36.4091C530.017 36.7273 529.142 36.8864 528.233 36.8864C527.222 36.8864 526.267 36.6989 525.369 36.3239C524.483 35.9375 523.704 35.4148 523.034 34.7557C522.375 34.0853 521.852 33.3068 521.466 32.4205C521.091 31.5228 520.903 30.5682 520.903 29.5568V12.1023H525.795V29.5568C525.795 29.8978 525.858 30.2216 525.983 30.5284C526.108 30.8239 526.278 31.0853 526.494 31.3125C526.722 31.5284 526.983 31.6989 527.278 31.8239C527.574 31.9489 527.892 32.0114 528.233 32.0114C528.574 32.0114 528.892 31.9489 529.187 31.8239C529.483 31.6989 529.739 31.5284 529.954 31.3125C530.182 31.0853 530.358 30.8239 530.483 30.5284C530.608 30.2216 530.67 29.8978 530.67 29.5568V12.1023H535.562V29.5568C535.562 29.8978 535.625 30.2216 535.75 30.5284C535.875 30.8239 536.045 31.0853 536.261 31.3125C536.489 31.5284 536.75 31.6989 537.045 31.8239C537.341 31.9489 537.659 32.0114 538 32.0114C538.341 32.0114 538.659 31.9489 538.954 31.8239C539.25 31.6989 539.506 31.5284 539.722 31.3125C539.949 31.0853 540.125 30.8239 540.25 30.5284C540.386 30.2216 540.454 29.8978 540.454 29.5568V12.1023H545.329V29.5568Z" fill="#16192C"/>
<path d="M554.704 13.3296C554.704 13.7614 554.619 14.1648 554.449 14.5398C554.29 14.9148 554.068 15.2443 553.784 15.5284C553.5 15.8012 553.165 16.0227 552.778 16.1932C552.403 16.3523 552 16.4318 551.568 16.4318C551.136 16.4318 550.727 16.3523 550.341 16.1932C549.966 16.0227 549.636 15.8012 549.352 15.5284C549.079 15.2443 548.858 14.9148 548.687 14.5398C548.528 14.1648 548.449 13.7614 548.449 13.3296C548.449 12.9091 548.528 12.5114 548.687 12.1364C548.858 11.75 549.079 11.4205 549.352 11.1477C549.636 10.8637 549.966 10.6421 550.341 10.483C550.727 10.3125 551.136 10.2273 551.568 10.2273C552 10.2273 552.403 10.3125 552.778 10.483C553.165 10.6421 553.5 10.8637 553.784 11.1477C554.068 11.4205 554.29 11.75 554.449 12.1364C554.619 12.5114 554.704 12.9091 554.704 13.3296ZM553.903 36.5455H549.216V18.2898H553.903V36.5455Z" fill="#16192C"/>
<path d="M567.489 36.5455H556.852V31.9091H567.489C567.807 31.9091 568.079 31.7955 568.307 31.5682C568.534 31.3409 568.648 31.0682 568.648 30.75C568.648 30.4205 568.534 30.2046 568.307 30.1023C568.079 30 567.807 29.9489 567.489 29.9489H562.648C561.841 29.9489 561.085 29.7955 560.381 29.4887C559.676 29.1818 559.062 28.7671 558.54 28.2443C558.017 27.7103 557.602 27.0909 557.295 26.3864C557 25.6818 556.852 24.9262 556.852 24.1193C556.852 23.3125 557 22.5568 557.295 21.8523C557.602 21.1477 558.017 20.5341 558.54 20.0114C559.062 19.4887 559.676 19.0796 560.381 18.7841C561.085 18.4773 561.841 18.3239 562.648 18.3239H572.074V22.9602H562.648C562.329 22.9602 562.057 23.0739 561.829 23.3012C561.602 23.5284 561.489 23.8012 561.489 24.1193C561.489 24.4489 561.602 24.733 561.829 24.9716C562.057 25.1989 562.329 25.3125 562.648 25.3125H567.489C568.284 25.3125 569.034 25.4489 569.739 25.7216C570.443 25.983 571.057 26.3523 571.579 26.8296C572.102 27.3068 572.517 27.8807 572.824 28.5512C573.131 29.2216 573.284 29.9546 573.284 30.75C573.284 31.5568 573.131 32.3125 572.824 33.0171C572.517 33.7103 572.102 34.3239 571.579 34.858C571.057 35.3807 570.443 35.7955 569.739 36.1023C569.034 36.3978 568.284 36.5455 567.489 36.5455Z" fill="#16192C"/>
<path d="M580.426 36.5455H575.773V11.0284H580.426V19.0909C580.983 18.6705 581.557 18.375 582.148 18.2046C582.739 18.0227 583.341 17.9318 583.954 17.9318C585.079 17.9318 586.136 18.1477 587.125 18.5796C588.114 19 588.972 19.5852 589.699 20.3352C590.437 21.0739 591.017 21.9432 591.437 22.9432C591.869 23.9318 592.085 24.9887 592.085 26.1137V36.5455H587.398V26.1137H587.432C587.432 25.6364 587.341 25.1875 587.159 24.7671C586.977 24.3352 586.727 23.9602 586.409 23.6421C586.091 23.3239 585.722 23.0739 585.301 22.8921C584.881 22.7102 584.432 22.6193 583.954 22.6193C583.466 22.6193 583.006 22.7102 582.574 22.8921C582.142 23.0739 581.767 23.3239 581.449 23.6421C581.131 23.9602 580.881 24.3352 580.699 24.7671C580.517 25.1875 580.426 25.6364 580.426 26.1137V36.5455Z" fill="#16192C"/>
<path d="M602.67 32.0796C602.852 32.1364 603.034 32.1762 603.216 32.1989C603.398 32.2103 603.579 32.2159 603.761 32.2159C604.216 32.2159 604.653 32.1534 605.074 32.0284C605.494 31.9034 605.886 31.7273 606.25 31.5C606.625 31.2614 606.954 30.9773 607.239 30.6478C607.534 30.3068 607.773 29.9318 607.954 29.5228L611.364 32.9489C610.932 33.5625 610.432 34.1137 609.864 34.6023C609.307 35.0909 608.699 35.5057 608.04 35.8466C607.392 36.1875 606.704 36.4432 605.977 36.6137C605.261 36.7955 604.523 36.8864 603.761 36.8864C602.477 36.8864 601.267 36.6478 600.131 36.1705C599.006 35.6932 598.017 35.0284 597.165 34.1762C596.324 33.3239 595.659 32.3125 595.17 31.1421C594.682 29.9603 594.437 28.6648 594.437 27.2557C594.437 25.8125 594.682 24.4943 595.17 23.3012C595.659 22.108 596.324 21.0909 597.165 20.25C598.017 19.4091 599.006 18.7557 600.131 18.2898C601.267 17.8239 602.477 17.5909 603.761 17.5909C604.523 17.5909 605.267 17.6818 605.994 17.8637C606.722 18.0455 607.409 18.3068 608.057 18.6477C608.716 18.9887 609.329 19.4091 609.898 19.9091C610.466 20.3977 610.966 20.9489 611.398 21.5625L602.67 32.0796ZM605.057 22.483C604.841 22.4034 604.625 22.3523 604.409 22.3296C604.204 22.3068 603.989 22.2955 603.761 22.2955C603.125 22.2955 602.523 22.4148 601.954 22.6534C601.398 22.8807 600.909 23.2102 600.489 23.6421C600.079 24.0739 599.756 24.5966 599.517 25.2102C599.278 25.8125 599.159 26.4943 599.159 27.2557C599.159 27.4262 599.165 27.6193 599.176 27.8353C599.199 28.0512 599.227 28.2728 599.261 28.5C599.307 28.7159 599.358 28.9262 599.415 29.1307C599.472 29.3353 599.545 29.5171 599.636 29.6762L605.057 22.483Z" fill="#16192C"/>
<path d="M618.437 36.5455H613.75V11.0284H618.437V36.5455Z" fill="#16192C"/>
<path d="M626.687 43.5H622V18.2898H623.125L624.983 20.4887C625.403 20.0909 625.864 19.7159 626.364 19.3637C626.864 19.0114 627.381 18.7102 627.915 18.4602C628.46 18.1989 629.023 17.9943 629.602 17.8466C630.182 17.6989 630.767 17.625 631.358 17.625C632.642 17.625 633.847 17.858 634.972 18.3239C636.108 18.7784 637.097 19.4262 637.937 20.2671C638.79 21.108 639.46 22.125 639.949 23.3182C640.437 24.5 640.682 25.8125 640.682 27.2557C640.682 28.7557 640.437 30.108 639.949 31.3125C639.46 32.5057 638.79 33.5228 637.937 34.3637C637.097 35.1932 636.108 35.8296 634.972 36.2728C633.847 36.7159 632.642 36.9375 631.358 36.9375C630.949 36.9375 630.54 36.8921 630.131 36.8012C629.733 36.7103 629.335 36.5909 628.937 36.4432C628.551 36.2841 628.165 36.108 627.778 35.9148C627.403 35.7216 627.04 35.5228 626.687 35.3182V43.5ZM636.011 27.2557C636.011 26.483 635.886 25.7898 635.636 25.1762C635.398 24.5625 635.068 24.0455 634.648 23.625C634.227 23.1932 633.733 22.8637 633.165 22.6364C632.597 22.4091 631.994 22.2955 631.358 22.2955C630.722 22.2955 630.119 22.4091 629.551 22.6364C628.994 22.8637 628.506 23.1932 628.085 23.625C627.665 24.0455 627.329 24.5625 627.079 25.1762C626.841 25.7898 626.722 26.483 626.722 27.2557C626.722 27.9943 626.841 28.6705 627.079 29.2841C627.329 29.8978 627.665 30.4205 628.085 30.8523C628.506 31.2841 628.994 31.6193 629.551 31.858C630.119 32.0966 630.722 32.2159 631.358 32.2159C631.994 32.2159 632.597 32.0966 633.165 31.858C633.733 31.6193 634.227 31.2841 634.648 30.8523C635.068 30.4205 635.398 29.8978 635.636 29.2841C635.886 28.6705 636.011 27.9943 636.011 27.2557Z" fill="#16192C"/>
<g clip-path="url(#clip3_162_3585)">
<path d="M740.141 4.51614C740.395 4.60574 740.617 4.76962 740.777 4.98659C740.938 5.20355 741.029 5.46361 741.04 5.73314C741.178 7.17248 741.237 8.61834 741.216 10.0641C741.201 10.7274 741.186 11.3907 741.142 12.0539C740.892 11.9505 740.657 11.847 740.406 11.7497C739.773 11.5002 739.154 11.2644 738.519 11.0423C738.534 10.7046 738.55 10.3806 738.55 10.0413C738.563 8.9658 738.534 7.87506 738.446 6.77064C737.415 6.44661 736.339 6.15149 735.252 5.88679C733.882 5.56276 732.513 5.29655 731.126 5.10488C730.346 5.00295 729.594 4.91319 728.873 4.84017C728.152 4.76715 727.384 4.72303 726.603 4.68805C725.995 4.67283 725.424 4.65914 724.807 4.65914L723.908 4.67284C723.641 4.67284 723.333 4.68805 723.009 4.68805C722.228 4.71847 721.477 4.77628 720.739 4.84017C720.001 4.90406 719.266 5.00295 718.486 5.10488C717.117 5.29655 715.731 5.56124 714.36 5.88679C713.269 6.15149 712.209 6.44661 711.166 6.77064C710.986 9.19227 711.05 11.6258 711.357 14.0346C711.52 15.3821 711.756 16.7197 712.065 18.0416C712.241 18.7931 712.448 19.5446 712.673 20.2656L712.688 20.325L712.702 20.3843L712.717 20.4436L712.746 20.5014L712.761 20.5608L712.777 20.6201L712.792 20.6794L712.85 20.8407V20.8559L712.865 20.9137L712.968 21.1936L712.982 21.2529L713.072 21.4887L713.085 21.5329C713.54 22.8521 714.067 24.1456 714.663 25.4075L714.692 25.4516L714.707 25.4972L714.721 25.5261L714.751 25.5703L714.765 25.6144L714.78 25.6585L714.809 25.6874C715.031 26.1437 715.265 26.6001 715.503 27.0565C715.679 27.3516 715.84 27.665 716.003 27.9404C716.195 28.2801 716.372 28.5747 716.534 28.8242C717.035 29.635 717.564 30.4306 718.125 31.1974C718.687 31.9641 719.259 32.7003 719.893 33.4366C720.129 33.7165 720.395 34.0111 720.689 34.3205C720.969 34.6247 721.233 34.929 721.484 35.1891C722.132 35.8524 722.809 36.4867 723.488 37.1044L723.768 37.3402C723.576 37.4923 723.384 37.6444 723.179 37.7965C722.648 38.1936 722.103 38.5769 721.557 38.9603C718.614 36.3214 716.081 33.2572 714.044 29.8693V29.8541L714.029 29.8404L714.013 29.8252C713.896 29.6335 713.793 29.4418 713.689 29.2806C713.513 28.9565 713.321 28.631 713.16 28.3222C712.673 27.4383 712.23 26.5256 711.805 25.5672C711.379 24.6088 711.009 23.6672 710.67 22.724C710.196 21.3907 709.793 20.0334 709.462 18.6577C708.461 14.425 708.162 10.0566 708.578 5.72706C708.59 5.45713 708.684 5.19729 708.847 4.9817C709.01 4.76612 709.234 4.60488 709.491 4.51919C710.89 4.0476 712.32 3.63534 713.764 3.28089C715.179 2.95686 716.636 2.67239 718.125 2.45637C718.886 2.35293 719.686 2.2647 720.526 2.19168C721.337 2.11714 722.132 2.05933 722.913 2.0289C723.208 2.0289 723.521 2.0137 723.856 2.0137L724.814 2L725.771 2.0137C726.11 2.0137 726.434 2.0289 726.714 2.0289C727.51 2.05933 728.306 2.11714 729.116 2.19168C729.956 2.2647 730.752 2.35293 731.503 2.45637C733.005 2.67696 734.464 2.95686 735.878 3.28089C737.308 3.63534 738.737 4.04152 740.151 4.51919L740.141 4.51614ZM731.506 31.1989C732.037 30.4474 732.571 29.6776 733.053 28.885C733.22 28.5862 733.493 28.361 733.818 28.2544C734.143 28.1478 734.496 28.1677 734.807 28.31C737.368 29.5337 739.692 31.1997 741.673 33.2313C741.905 33.4449 742.054 33.7334 742.094 34.0461C742.134 34.3587 742.063 34.6756 741.893 34.9411C741.481 35.5892 741.025 36.2661 740.568 36.9294C740.112 37.5927 739.61 38.2407 739.125 38.8599C738.77 39.3163 738.387 39.7878 737.975 40.2594C737.622 40.6717 737.223 41.1281 736.782 41.6149C736.163 42.2933 735.565 42.911 734.956 43.5149H734.941C734.352 44.1052 733.724 44.6802 733.07 45.2537C732.877 45.4417 732.632 45.5675 732.367 45.615C732.102 45.6624 731.828 45.6293 731.582 45.5199C729.643 44.6297 727.776 43.5901 725.998 42.4105C726.234 42.234 726.469 42.0576 726.705 41.8659C727.206 41.4673 727.708 41.0703 728.178 40.6489C729.379 41.4126 730.624 42.106 731.906 42.7254C732.303 42.3572 732.687 41.9891 733.085 41.6057C733.703 40.9972 734.278 40.4131 734.809 39.8228C735.162 39.4547 735.53 39.0135 735.944 38.5419C736.297 38.1145 736.665 37.6718 737.019 37.2017C737.505 36.6115 737.947 36.0075 738.375 35.3884C738.61 35.0841 738.831 34.7403 739.052 34.4163C738.389 33.7805 737.679 33.1948 736.929 32.6638C736.219 32.1489 735.476 31.6809 734.705 31.2628C734.366 31.7785 734.013 32.2805 733.659 32.7658C733.041 33.6207 732.407 34.4163 731.759 35.183C731.464 35.5207 731.184 35.8311 730.919 36.1262C730.8 36.2783 730.668 36.4061 730.536 36.5521L730.52 36.5674L730.507 36.5826L730.492 36.5963L730.476 36.6115L730.463 36.6267L730.447 36.6419L730.432 36.6556L730.403 36.686V36.6997C728.997 38.1815 727.485 39.5602 725.881 40.8253C723.456 42.687 720.826 44.2642 718.042 45.526C717.789 45.6395 717.507 45.6721 717.234 45.6193C716.962 45.5664 716.713 45.4308 716.52 45.2309C715.871 44.6711 715.267 44.096 714.663 43.521C714.054 42.9323 713.455 42.304 712.837 41.6209C712.381 41.1341 711.984 40.6778 711.63 40.2655C711.232 39.7939 710.849 39.3223 710.481 38.866C709.994 38.2331 709.523 37.5988 709.051 36.9355C708.579 36.2722 708.138 35.5953 707.726 34.9472C707.401 34.4315 707.063 33.8823 706.724 33.3119C706.419 32.7521 706.104 32.1922 705.811 31.6385C705.429 30.9311 705.075 30.2085 704.735 29.4875C704.396 28.7664 704.102 28.0423 703.794 27.2908C703.234 25.9217 702.747 24.5221 702.32 23.0921C701.892 21.6622 701.539 20.22 701.255 18.7611C701.199 18.4924 701.229 18.2131 701.34 17.9622C701.451 17.7113 701.638 17.5013 701.874 17.3616C703.589 16.1423 705.397 15.0585 707.28 14.1198C707.353 14.8272 707.443 15.5194 707.56 16.2115C707.589 16.4473 707.633 16.6831 707.677 16.9189C706.427 17.5729 705.217 18.3014 704.054 19.1004C704.29 20.2048 704.569 21.2803 704.878 22.3269C705.277 23.6824 705.748 25.0074 706.264 26.2822C706.544 26.9744 706.838 27.6665 707.162 28.3587C707.486 29.0509 707.811 29.7278 708.164 30.3774C708.444 30.9235 708.739 31.4423 709.034 31.9686C709.328 32.4554 709.643 32.9711 709.976 33.5157C710.39 34.1638 710.802 34.7981 711.229 35.3869C711.657 35.9756 712.113 36.6039 712.585 37.2002C712.953 37.6703 713.306 38.1129 713.674 38.5404C714.073 39.012 714.456 39.4532 714.794 39.8213C715.34 40.4116 715.913 41.0003 716.533 41.6042C716.916 41.9876 717.315 42.3557 717.696 42.7102C719.913 41.6438 722.016 40.3553 723.973 38.8644C726.841 36.6896 729.377 34.1089 731.502 31.2034L731.506 31.1989ZM747.729 17.3555C747.964 17.4968 748.151 17.7064 748.264 17.9564C748.377 18.2065 748.411 18.4851 748.362 18.755C748.067 20.2139 747.714 21.6576 747.286 23.086C746.859 24.5145 746.373 25.9156 745.827 27.2847C745.772 27.4213 745.692 27.5466 745.591 27.6544C745.36 27.9223 745.033 28.0886 744.68 28.117C744.328 28.1455 743.978 28.0339 743.707 27.8065C742.711 26.9399 741.657 26.1424 740.553 25.4196C739.468 24.7098 738.335 24.075 737.164 23.5196C736.856 23.381 736.612 23.1324 736.479 22.8228C736.345 22.5132 736.332 22.1648 736.443 21.8462C736.883 20.6064 737.252 19.3422 737.547 18.0598C737.679 17.5593 737.783 17.0573 737.886 16.5386C738.226 16.6709 738.55 16.8048 738.889 16.9508C739.389 17.1729 739.89 17.4072 740.39 17.6445C740.317 17.9975 740.238 18.3367 740.155 18.6759C739.92 19.6632 739.654 20.6536 739.345 21.6226C740.258 22.0942 741.157 22.6236 742.026 23.1834C742.689 23.6261 743.352 24.0961 743.987 24.5829C744.251 23.8467 744.502 23.0952 744.723 22.33C745.047 21.2834 745.312 20.2002 745.563 19.1034C743.629 17.7814 741.571 16.6513 739.418 15.7293C738.092 15.1562 736.735 14.6589 735.352 14.24C734.089 13.8584 732.805 13.5486 731.506 13.312C730.593 13.1508 729.65 13.0184 728.692 12.915C727.734 12.8115 726.792 12.7522 725.849 12.7233L725.319 12.7081H724.288L723.772 12.7233C722.829 12.7522 721.871 12.8115 720.927 12.915C719.984 13.0184 719.027 13.1508 718.099 13.312C716.817 13.5478 715.536 13.8718 714.254 14.24C713.767 14.3921 713.282 14.5442 712.795 14.7116C712.751 14.4317 712.707 14.167 712.678 13.887C712.589 13.2542 712.526 12.6351 712.486 12.0007C716.461 10.6864 720.621 10.0187 724.808 10.0231C729.987 10.0302 735.115 11.0407 739.91 12.9986C742.675 14.1508 745.299 15.614 747.733 17.3601L747.729 17.3555ZM723.182 29.0098C722.961 28.7299 722.77 28.4789 722.593 28.2583C721.191 26.339 720.001 24.2738 719.043 22.0988C718.91 21.8051 718.776 21.51 718.659 21.2149C718.542 20.9198 718.452 20.6703 718.355 20.3904C718.313 20.2931 718.283 20.1909 718.267 20.0861C718.235 19.9129 718.239 19.7351 718.277 19.5632C718.315 19.3912 718.387 19.2286 718.488 19.0848C718.59 18.9409 718.719 18.8187 718.868 18.7252C719.017 18.6318 719.184 18.569 719.358 18.5405C719.637 18.4812 719.966 18.4371 720.301 18.3884L721.258 18.2545C721.848 18.1967 722.437 18.1526 723.04 18.1024C723.644 18.0522 724.257 18.0583 724.81 18.0583C725.362 18.0583 725.958 18.072 726.591 18.1024C727.2 18.1465 727.785 18.1907 728.36 18.2545L729.317 18.3884C729.672 18.4325 729.98 18.4767 730.276 18.5405C730.351 18.5527 730.425 18.572 730.496 18.5984C730.83 18.7187 731.102 18.966 731.254 19.2863C731.406 19.6066 731.425 19.9739 731.307 20.3082C731.188 20.6125 731.071 20.9259 730.952 21.221C730.834 21.5161 730.717 21.8112 730.584 22.1048C730.106 23.189 729.569 24.2467 728.978 25.2736C728.384 26.3078 727.729 27.3065 727.019 28.2644C726.797 28.5575 726.606 28.808 726.445 29.0159C726.194 29.3201 726.002 29.5757 725.837 29.7522C725.785 29.818 725.725 29.8773 725.659 29.9286C725.525 30.0414 725.37 30.1263 725.203 30.1785C725.036 30.2308 724.86 30.2492 724.686 30.2328C724.512 30.2163 724.343 30.1654 724.188 30.0829C724.034 30.0003 723.898 29.8879 723.787 29.7522C723.567 29.5012 723.375 29.2654 723.179 29.0159L723.182 29.0098Z" fill="#38CEC9"/>
</g>
<path d="M762.671 21.1521C763.614 19.6859 765.272 18.9528 767.646 18.9528V22.0684C767.367 22.0161 767.113 21.9899 766.887 21.9899C765.612 21.9899 764.617 22.3652 763.902 23.1157C763.186 23.8488 762.828 24.9135 762.828 26.3099V33.091H759.556V19.1099H762.671V21.1521Z" fill="#1B1E59"/>
<path d="M783.438 26.179C783.438 26.4059 783.42 26.7288 783.385 27.1477H772.415C772.607 28.1775 773.104 28.9979 773.907 29.6088C774.728 30.2022 775.74 30.499 776.944 30.499C778.48 30.499 779.746 29.9928 780.741 28.9804L782.495 30.9964C781.867 31.747 781.072 32.3142 780.112 32.6982C779.152 33.0822 778.07 33.2742 776.866 33.2742C775.33 33.2742 773.977 32.9688 772.808 32.3579C771.638 31.747 770.731 30.9004 770.085 29.8182C769.456 28.7186 769.142 27.4793 769.142 26.1004C769.142 24.739 769.448 23.5172 770.059 22.435C770.687 21.3353 771.551 20.4801 772.651 19.8692C773.75 19.2582 774.99 18.9528 776.368 18.9528C777.73 18.9528 778.943 19.2582 780.008 19.8692C781.09 20.4626 781.928 21.3092 782.521 22.4088C783.132 23.491 783.438 24.7477 783.438 26.179ZM776.368 21.571C775.321 21.571 774.431 21.8852 773.698 22.5135C772.982 23.1244 772.546 23.9448 772.389 24.9746H780.322C780.182 23.9622 779.755 23.1419 779.039 22.5135C778.323 21.8852 777.433 21.571 776.368 21.571Z" fill="#1B1E59"/>
<path d="M790.901 33.2742C789.767 33.2742 788.658 33.1259 787.576 32.8292C786.494 32.5324 785.63 32.1572 784.984 31.7033L786.241 29.2161C786.869 29.635 787.62 29.9753 788.493 30.2372C789.383 30.4815 790.255 30.6037 791.111 30.6037C793.066 30.6037 794.043 30.0888 794.043 29.059C794.043 28.5702 793.79 28.2299 793.284 28.0379C792.795 27.8459 792.001 27.6626 790.901 27.4881C789.749 27.3135 788.807 27.1128 788.074 26.8859C787.358 26.659 786.73 26.2662 786.189 25.7077C785.665 25.1317 785.403 24.3375 785.403 23.3252C785.403 21.9986 785.953 20.9426 787.053 20.1572C788.17 19.3542 789.671 18.9528 791.556 18.9528C792.516 18.9528 793.476 19.0662 794.436 19.2932C795.396 19.5026 796.181 19.7906 796.792 20.1572L795.535 22.6444C794.349 21.9462 793.013 21.5972 791.53 21.5972C790.57 21.5972 789.837 21.7455 789.33 22.0422C788.842 22.3215 788.597 22.6968 788.597 23.1681C788.597 23.6917 788.859 24.067 789.383 24.2939C789.924 24.5033 790.753 24.7041 791.87 24.8961C792.987 25.0706 793.903 25.2713 794.619 25.4982C795.335 25.7252 795.946 26.1092 796.452 26.6502C796.975 27.1913 797.237 27.9593 797.237 28.9542C797.237 30.2633 796.67 31.3106 795.535 32.0961C794.401 32.8815 792.856 33.2742 790.901 33.2742Z" fill="#1B1E59"/>
<path d="M813.199 26.179C813.199 26.4059 813.181 26.7288 813.147 27.1477H802.176C802.368 28.1775 802.866 28.9979 803.669 29.6088C804.489 30.2022 805.501 30.499 806.706 30.499C808.242 30.499 809.507 29.9928 810.502 28.9804L812.256 30.9964C811.628 31.747 810.834 32.3142 809.874 32.6982C808.914 33.0822 807.832 33.2742 806.627 33.2742C805.091 33.2742 803.739 32.9688 802.569 32.3579C801.4 31.747 800.492 30.9004 799.846 29.8182C799.218 28.7186 798.904 27.4793 798.904 26.1004C798.904 24.739 799.209 23.5172 799.82 22.435C800.448 21.3353 801.312 20.4801 802.412 19.8692C803.512 19.2582 804.751 18.9528 806.13 18.9528C807.491 18.9528 808.704 19.2582 809.769 19.8692C810.851 20.4626 811.689 21.3092 812.283 22.4088C812.893 23.491 813.199 24.7477 813.199 26.179ZM806.13 21.571C805.083 21.571 804.192 21.8852 803.459 22.5135C802.744 23.1244 802.307 23.9448 802.15 24.9746H810.083C809.944 23.9622 809.516 23.1419 808.8 22.5135C808.085 21.8852 807.195 21.571 806.13 21.571Z" fill="#1B1E59"/>
<path d="M822.757 33.2742C821.308 33.2742 820.008 32.9688 818.856 32.3579C817.704 31.747 816.805 30.9004 816.159 29.8182C815.514 28.7186 815.191 27.4793 815.191 26.1004C815.191 24.7215 815.514 23.491 816.159 22.4088C816.805 21.3266 817.695 20.4801 818.83 19.8692C819.982 19.2582 821.291 18.9528 822.757 18.9528C824.136 18.9528 825.34 19.2321 826.37 19.7906C827.418 20.3492 828.203 21.1521 828.727 22.1993L826.213 23.6655C825.812 23.0197 825.306 22.5397 824.695 22.2255C824.101 21.8939 823.447 21.7281 822.731 21.7281C821.509 21.7281 820.497 22.1295 819.694 22.9324C818.891 23.7179 818.49 24.7739 818.49 26.1004C818.49 27.427 818.882 28.4917 819.668 29.2946C820.471 30.0801 821.492 30.4728 822.731 30.4728C823.447 30.4728 824.101 30.3157 824.695 30.0015C825.306 29.6699 825.812 29.1812 826.213 28.5353L828.727 30.0015C828.186 31.0488 827.391 31.8604 826.344 32.4364C825.314 32.995 824.119 33.2742 822.757 33.2742Z" fill="#1B1E59"/>
<path d="M845.092 19.1099V33.091H841.976V31.3106C841.452 31.939 840.798 32.4277 840.012 32.7768C839.227 33.1084 838.38 33.2742 837.473 33.2742C835.605 33.2742 834.13 32.7593 833.048 31.7295C831.983 30.6822 831.451 29.1375 831.451 27.0953V19.1099H834.724V26.6502C834.724 27.907 835.003 28.8495 835.561 29.4779C836.137 30.0888 836.949 30.3942 837.996 30.3942C839.166 30.3942 840.091 30.0364 840.772 29.3208C841.47 28.5877 841.819 27.5404 841.819 26.179V19.1099H845.092Z" fill="#1B1E59"/>
<path d="M852.492 21.1521C853.435 19.6859 855.093 18.9528 857.467 18.9528V22.0684C857.188 22.0161 856.935 21.9899 856.708 21.9899C855.433 21.9899 854.439 22.3652 853.723 23.1157C853.007 23.8488 852.649 24.9135 852.649 26.3099V33.091H849.377V19.1099H852.492V21.1521Z" fill="#1B1E59"/>
<path d="M867.993 18.9528C869.354 18.9528 870.568 19.2495 871.632 19.843C872.714 20.4364 873.561 21.2742 874.172 22.3564C874.783 23.4386 875.088 24.6866 875.088 26.1004C875.088 27.5142 874.783 28.771 874.172 29.8706C873.561 30.9528 872.714 31.7906 871.632 32.3841C870.568 32.9775 869.354 33.2742 867.993 33.2742C867.033 33.2742 866.152 33.1084 865.349 32.7768C864.563 32.4452 863.9 31.9477 863.359 31.2844V33.091H860.243V13.6641H863.516V20.8117C864.074 20.2008 864.729 19.7382 865.48 19.4241C866.248 19.1099 867.085 18.9528 867.993 18.9528ZM867.626 30.4728C868.831 30.4728 869.817 30.0713 870.585 29.2684C871.37 28.4655 871.763 27.4095 871.763 26.1004C871.763 24.7913 871.37 23.7353 870.585 22.9324C869.817 22.1295 868.831 21.7281 867.626 21.7281C866.841 21.7281 866.134 21.9113 865.506 22.2779C864.877 22.627 864.38 23.1332 864.013 23.7964C863.647 24.4597 863.464 25.2277 863.464 26.1004C863.464 26.9732 863.647 27.7412 864.013 28.4044C864.38 29.0677 864.877 29.5826 865.506 29.9492C866.134 30.2982 866.841 30.4728 867.626 30.4728Z" fill="#1B1E59"/>
<defs>
<clipPath id="clip0_162_3585">
<rect width="48" height="48" fill="white"/>
</clipPath>
<clipPath id="clip1_162_3585">
<rect width="39.2425" height="43.6364" fill="white" transform="translate(243.64 2)"/>
</clipPath>
<clipPath id="clip2_162_3585">
<rect width="48.142" height="48" fill="white" transform="translate(457.716)"/>
</clipPath>
<clipPath id="clip3_162_3585">
<rect width="48" height="43.6364" fill="white" transform="translate(700.682 2)"/>
</clipPath>
</defs>
</svg>
