<svg width="155" height="44" viewBox="0 0 155 44" fill="none" xmlns="http://www.w3.org/2000/svg">
<path d="M53.1211 14.5484C53.1211 22.4029 61.5648 23.4633 61.5648 29.1185C61.5648 31.0822 60.7008 31.7891 59.3262 31.7891C57.9517 31.7891 57.0877 31.0822 57.0877 29.1185V27.1549H53.0033V28.8436C53.0033 33.2422 55.2026 35.7556 59.444 35.7556C63.6855 35.7556 65.8848 33.2422 65.8848 28.8436C65.8848 20.9891 57.4411 19.9287 57.4411 14.2734C57.4411 12.3098 58.2266 11.5636 59.6011 11.5636C60.9757 11.5636 61.7611 12.3098 61.7611 14.2734V15.4124H65.8455V14.5484C65.8455 10.1498 63.6855 7.63635 59.4833 7.63635C55.2811 7.63635 53.1211 10.1498 53.1211 14.5484Z" fill="#BBC3CF"/>
<path d="M72.1365 35.4414H76.4565V26.3302L81.9154 7.95053H77.7917L74.4928 20.4785L71.1939 7.95053H66.6776L72.1365 26.3302V35.4414Z" fill="#BBC3CF"/>
<path d="M89.6319 7.95053H83.6231V35.4414H87.3933V16.0014L90.6137 35.4414H94.698L97.6828 15.7265V35.4414H101.767V7.95053H95.7584L92.813 27.4691L89.6319 7.95053Z" fill="#BBC3CF"/>
<path d="M103.653 11.8778H108.169V35.4414H112.489V11.8778H117.006V7.95053H103.653V11.8778Z" fill="#BBC3CF"/>
<path d="M132.339 35.4414C131.907 34.4204 131.868 33.4385 131.868 32.1033V27.8618C131.868 24.9949 131.161 22.9134 129.001 22.0102C130.926 21.1069 131.829 19.2611 131.829 16.4334V14.2734C131.829 10.032 129.905 7.95053 125.427 7.95053H118.908V35.4414H123.228V24.2487H124.721C126.684 24.2487 127.548 25.1913 127.548 27.744V32.064C127.548 34.3025 127.705 34.7345 127.941 35.4414H132.339ZM125.31 11.8778C126.841 11.8778 127.509 12.7418 127.509 14.7054V17.4153C127.509 19.6145 126.527 20.3214 124.917 20.3214H123.228V11.8778H125.31Z" fill="#BBC3CF"/>
<path d="M134.709 35.4414H139.029V7.95053H134.709V35.4414Z" fill="#BBC3CF"/>
<path d="M150.632 25.1913V29.1185C150.632 31.0822 149.768 31.7891 148.393 31.7891C147.019 31.7891 146.155 31.0822 146.155 29.1185V14.2734C146.155 12.3098 147.019 11.5636 148.393 11.5636C149.768 11.5636 150.632 12.3098 150.632 14.2734V17.2189H154.716V14.5484C154.716 10.1498 152.517 7.63635 148.275 7.63635C144.034 7.63635 141.835 10.1498 141.835 14.5484V28.8436C141.835 33.2422 144.034 35.7556 148.275 35.7556C152.517 35.7556 154.716 33.2422 154.716 28.8436V25.1913H150.632Z" fill="#BBC3CF"/>
<g clip-path="url(#clip0_280_1507)">
<path fill-rule="evenodd" clip-rule="evenodd" d="M15.4831 13.835L13.1225 17.9162L10.8763 14.02L13.2252 9.93879H29.6322L33.1159 3.8963H9.73857L5.13184 11.8869C8.58763 17.857 12.0381 23.827 15.4831 29.7971H22.4505C20.7006 26.768 18.9516 23.7395 17.2036 20.7114L16.7192 19.8731H32.6872L39.5547 31.7643L32.6872 43.6365H7.49248L0.695428 31.6498L4.10865 25.7218L6.36943 29.6166L5.14653 31.7496L9.75326 39.7402H30.4278L35.0493 31.7496L30.4425 23.759H23.4752C24.953 26.333 26.4318 28.9065 27.9116 31.4795L28.079 31.7452L26.9559 33.6933H13.2369C9.08432 26.5126 4.93707 19.3372 0.795209 12.1673L0.639587 11.8825L7.49248 -0.00872803H39.8806L31.8959 13.835H15.4831Z" fill="#BBC3CF"/>
</g>
<defs>
<clipPath id="clip0_280_1507">
<rect width="39.2425" height="43.6364" fill="white" transform="translate(0.639648)"/>
</clipPath>
</defs>
</svg>
