<svg width="90" height="91" viewBox="0 0 90 91" fill="none" xmlns="http://www.w3.org/2000/svg">
<path d="M79 0H11C4.92487 0 0 4.92487 0 11V80C0 86.0751 4.92487 91 11 91H55.5574C58.9874 91 62.221 89.4 64.3019 86.6734L87.7445 55.9555C89.2075 54.0384 90 51.6937 90 49.2821V11C90 4.92487 85.0751 0 79 0Z" fill="#B9FFD1"/>
<path d="M67.685 60.7767L65.5183 52.4133L58.6933 27.3017C58.5458 26.7477 58.1849 26.2748 57.6894 25.9865C57.194 25.6982 56.6045 25.6179 56.05 25.7633L47.665 27.93C47.4649 27.7082 47.2211 27.5302 46.9489 27.4072C46.6767 27.2841 46.382 27.2187 46.0833 27.215H24.4167C23.842 27.215 23.2909 27.4433 22.8846 27.8496C22.4783 28.2559 22.25 28.807 22.25 29.3817V64.0483C22.25 64.623 22.4783 65.1741 22.8846 65.5804C23.2909 65.9867 23.842 66.215 24.4167 66.215H46.0833C46.658 66.215 47.2091 65.9867 47.6154 65.5804C48.0217 65.1741 48.25 64.623 48.25 64.0483V46.715L53.0167 64.525C53.1436 64.9977 53.4269 65.4134 53.8203 65.7046C54.2138 65.9957 54.6942 66.1451 55.1833 66.1283C55.3705 66.1496 55.5595 66.1496 55.7467 66.1283L66.2117 63.3333C66.4883 63.2593 66.7476 63.1313 66.9745 62.9565C67.2013 62.7817 67.3913 62.5637 67.5333 62.315C67.7619 61.8356 67.8155 61.2914 67.685 60.7767ZM33.0183 61.9683H26.5183V57.635H33.0183V61.9683ZM33.0183 53.3017H26.5183V40.3017H33.0183V53.3017ZM33.0183 35.9683H26.5183V31.635H33.0183V35.9683ZM43.8517 61.9683H37.3517V57.635H43.8517V61.9683ZM43.8517 53.3017H37.3517V40.3017H43.8517V53.3017ZM43.8517 35.9683H37.3517V31.635H43.8517V35.9683ZM48.7267 32.1983L55.01 30.5083L56.1367 34.69L49.8533 36.38L48.7267 32.1983ZM54.3383 53.1283L50.98 40.5617L57.2633 38.8717L60.6217 51.4383L54.3383 53.1283ZM56.505 61.4917L55.3783 57.31L61.6617 55.62L62.7883 59.8017L56.505 61.4917Z" fill="black"/>
</svg>
