<svg width="184" height="48" viewBox="0 0 184 48" fill="none" xmlns="http://www.w3.org/2000/svg">
<g clip-path="url(#clip0_162_3588)">
<path fill-rule="evenodd" clip-rule="evenodd" d="M27.4248 47.0853C32.6197 46.4788 37.4579 44.1369 41.1562 40.4386C44.8544 36.7403 47.1963 31.9021 47.8028 26.7073H39.0721C38.5214 29.5903 37.1161 32.2411 35.0389 34.3149C32.9617 36.3887 30.3088 37.7896 27.4248 38.3356V47.0853Z" fill="#F7936F"/>
<path fill-rule="evenodd" clip-rule="evenodd" d="M35.1806 3.24608L35.2355 3.21011C40.8849 -0.0359779 45.453 -0.990521 47.5798 1.13818C53.5966 7.1531 36.6294 25.8626 31.6031 30.8889C28.5804 33.9205 25.3771 36.7665 22.0107 39.4113V47.0796C19.3042 46.7723 16.6745 45.9834 14.2458 44.7501L14.1909 44.7861C8.5415 48.0322 3.97545 48.9867 1.84675 46.8693C-1.0698 43.9528 2.34288 37.239 3.95645 34.4683C2.73082 32.0366 1.94236 29.4083 1.62703 26.7035H10.3766C10.7592 28.7342 11.5686 30.6607 12.7511 32.3554C13.9336 34.0501 15.4623 35.4746 17.2362 36.5345C16.2268 37.2675 15.2003 37.9644 14.136 38.6178C12.5773 39.6083 10.9638 40.5438 9.29339 41.3866C7.98611 40.2289 6.81682 38.9243 5.8087 37.4985C4.04741 40.8923 3.46031 43.3865 4.39588 44.3164C8.41277 48.2935 26.4802 31.6976 29.4517 28.7261C32.6153 25.5667 35.5744 22.2091 38.3111 18.6735C37.4093 16.3688 35.9362 14.3313 34.0302 12.7527C32.1243 11.174 29.8481 10.1061 27.4158 9.64925V0.899554C30.1228 1.20412 32.753 1.99317 35.1806 3.22902V3.24608ZM43.6177 10.492C45.379 7.0982 45.9661 4.60398 45.0306 3.67409C44.095 2.74421 41.6217 3.34457 38.226 5.10587C40.3135 6.58735 42.1363 8.41016 43.6177 10.4977V10.492Z" fill="#F16063"/>
<path fill-rule="evenodd" clip-rule="evenodd" d="M22.0147 0.916626C16.8197 1.52353 11.9815 3.86584 8.28328 7.56443C4.58503 11.263 2.24314 16.1014 1.63672 21.2965H10.3864C10.9297 18.4131 12.33 15.7606 14.4046 13.6857C16.4792 11.6108 19.1314 10.21 22.0147 9.66627V0.916626Z" fill="#F7936F"/>
</g>
<path d="M88.3295 29.5568C88.3295 30.5682 88.1363 31.5228 87.7499 32.4205C87.3749 33.3068 86.8522 34.0853 86.1817 34.7557C85.5226 35.4148 84.7442 35.9375 83.8465 36.3239C82.9601 36.6989 82.0113 36.8864 80.9999 36.8864C80.0908 36.8864 79.2158 36.7273 78.3749 36.4091C77.5454 36.0909 76.7954 35.625 76.1249 35.0114C75.4545 35.625 74.6988 36.0909 73.8579 36.4091C73.017 36.7273 72.142 36.8864 71.2329 36.8864C70.2215 36.8864 69.267 36.6989 68.3692 36.3239C67.4829 35.9375 66.7045 35.4148 66.034 34.7557C65.3749 34.0853 64.8522 33.3068 64.4658 32.4205C64.0908 31.5228 63.9033 30.5682 63.9033 29.5568V12.1023H68.7954V29.5568C68.7954 29.8978 68.8579 30.2216 68.9829 30.5284C69.1079 30.8239 69.2783 31.0853 69.4942 31.3125C69.7215 31.5284 69.9829 31.6989 70.2783 31.8239C70.5738 31.9489 70.892 32.0114 71.2329 32.0114C71.5738 32.0114 71.892 31.9489 72.1874 31.8239C72.4829 31.6989 72.7385 31.5284 72.9545 31.3125C73.1817 31.0853 73.3579 30.8239 73.4829 30.5284C73.6079 30.2216 73.6704 29.8978 73.6704 29.5568V12.1023H78.5624V29.5568C78.5624 29.8978 78.6249 30.2216 78.7499 30.5284C78.8749 30.8239 79.0454 31.0853 79.2613 31.3125C79.4885 31.5284 79.7499 31.6989 80.0454 31.8239C80.3408 31.9489 80.659 32.0114 80.9999 32.0114C81.3408 32.0114 81.659 31.9489 81.9545 31.8239C82.2499 31.6989 82.5056 31.5284 82.7215 31.3125C82.9488 31.0853 83.1249 30.8239 83.2499 30.5284C83.3863 30.2216 83.4545 29.8978 83.4545 29.5568V12.1023H88.3295V29.5568Z" fill="#16192C"/>
<path d="M97.7045 13.3296C97.7045 13.7614 97.6192 14.1648 97.4488 14.5398C97.2897 14.9148 97.0681 15.2443 96.784 15.5284C96.4999 15.8012 96.1647 16.0227 95.7783 16.1932C95.4033 16.3523 94.9999 16.4318 94.5681 16.4318C94.1363 16.4318 93.7272 16.3523 93.3408 16.1932C92.9658 16.0227 92.6363 15.8012 92.3522 15.5284C92.0795 15.2443 91.8579 14.9148 91.6874 14.5398C91.5283 14.1648 91.4488 13.7614 91.4488 13.3296C91.4488 12.9091 91.5283 12.5114 91.6874 12.1364C91.8579 11.75 92.0795 11.4205 92.3522 11.1477C92.6363 10.8637 92.9658 10.6421 93.3408 10.483C93.7272 10.3125 94.1363 10.2273 94.5681 10.2273C94.9999 10.2273 95.4033 10.3125 95.7783 10.483C96.1647 10.6421 96.4999 10.8637 96.784 11.1477C97.0681 11.4205 97.2897 11.75 97.4488 12.1364C97.6192 12.5114 97.7045 12.9091 97.7045 13.3296ZM96.9033 36.5455H92.2158V18.2898H96.9033V36.5455Z" fill="#16192C"/>
<path d="M110.489 36.5455H99.8522V31.9091H110.489C110.807 31.9091 111.079 31.7955 111.307 31.5682C111.534 31.3409 111.648 31.0682 111.648 30.75C111.648 30.4205 111.534 30.2046 111.307 30.1023C111.079 30 110.807 29.9489 110.489 29.9489H105.648C104.841 29.9489 104.085 29.7955 103.381 29.4887C102.676 29.1818 102.062 28.7671 101.54 28.2443C101.017 27.7103 100.602 27.0909 100.295 26.3864C99.9999 25.6818 99.8522 24.9262 99.8522 24.1193C99.8522 23.3125 99.9999 22.5568 100.295 21.8523C100.602 21.1477 101.017 20.5341 101.54 20.0114C102.062 19.4887 102.676 19.0796 103.381 18.7841C104.085 18.4773 104.841 18.3239 105.648 18.3239H115.074V22.9602H105.648C105.329 22.9602 105.057 23.0739 104.829 23.3012C104.602 23.5284 104.489 23.8012 104.489 24.1193C104.489 24.4489 104.602 24.733 104.829 24.9716C105.057 25.1989 105.329 25.3125 105.648 25.3125H110.489C111.284 25.3125 112.034 25.4489 112.739 25.7216C113.443 25.983 114.057 26.3523 114.579 26.8296C115.102 27.3068 115.517 27.8807 115.824 28.5512C116.131 29.2216 116.284 29.9546 116.284 30.75C116.284 31.5568 116.131 32.3125 115.824 33.0171C115.517 33.7103 115.102 34.3239 114.579 34.858C114.057 35.3807 113.443 35.7955 112.739 36.1023C112.034 36.3978 111.284 36.5455 110.489 36.5455Z" fill="#16192C"/>
<path d="M123.426 36.5455H118.773V11.0284H123.426V19.0909C123.983 18.6705 124.557 18.375 125.148 18.2046C125.739 18.0227 126.341 17.9318 126.954 17.9318C128.079 17.9318 129.136 18.1477 130.125 18.5796C131.114 19 131.972 19.5852 132.699 20.3352C133.437 21.0739 134.017 21.9432 134.437 22.9432C134.869 23.9318 135.085 24.9887 135.085 26.1137V36.5455H130.398V26.1137H130.432C130.432 25.6364 130.341 25.1875 130.159 24.7671C129.977 24.3352 129.727 23.9602 129.409 23.6421C129.091 23.3239 128.722 23.0739 128.301 22.8921C127.881 22.7102 127.432 22.6193 126.954 22.6193C126.466 22.6193 126.006 22.7102 125.574 22.8921C125.142 23.0739 124.767 23.3239 124.449 23.6421C124.131 23.9602 123.881 24.3352 123.699 24.7671C123.517 25.1875 123.426 25.6364 123.426 26.1137V36.5455Z" fill="#16192C"/>
<path d="M145.67 32.0796C145.852 32.1364 146.034 32.1762 146.216 32.1989C146.398 32.2103 146.579 32.2159 146.761 32.2159C147.216 32.2159 147.653 32.1534 148.074 32.0284C148.494 31.9034 148.886 31.7273 149.25 31.5C149.625 31.2614 149.954 30.9773 150.239 30.6478C150.534 30.3068 150.773 29.9318 150.954 29.5228L154.364 32.9489C153.932 33.5625 153.432 34.1137 152.864 34.6023C152.307 35.0909 151.699 35.5057 151.04 35.8466C150.392 36.1875 149.704 36.4432 148.977 36.6137C148.261 36.7955 147.523 36.8864 146.761 36.8864C145.477 36.8864 144.267 36.6478 143.131 36.1705C142.006 35.6932 141.017 35.0284 140.165 34.1762C139.324 33.3239 138.659 32.3125 138.17 31.1421C137.682 29.9603 137.437 28.6648 137.437 27.2557C137.437 25.8125 137.682 24.4943 138.17 23.3012C138.659 22.108 139.324 21.0909 140.165 20.25C141.017 19.4091 142.006 18.7557 143.131 18.2898C144.267 17.8239 145.477 17.5909 146.761 17.5909C147.523 17.5909 148.267 17.6818 148.994 17.8637C149.722 18.0455 150.409 18.3068 151.057 18.6477C151.716 18.9887 152.329 19.4091 152.898 19.9091C153.466 20.3977 153.966 20.9489 154.398 21.5625L145.67 32.0796ZM148.057 22.483C147.841 22.4034 147.625 22.3523 147.409 22.3296C147.204 22.3068 146.989 22.2955 146.761 22.2955C146.125 22.2955 145.523 22.4148 144.954 22.6534C144.398 22.8807 143.909 23.2102 143.489 23.6421C143.079 24.0739 142.756 24.5966 142.517 25.2102C142.278 25.8125 142.159 26.4943 142.159 27.2557C142.159 27.4262 142.165 27.6193 142.176 27.8353C142.199 28.0512 142.227 28.2728 142.261 28.5C142.307 28.7159 142.358 28.9262 142.415 29.1307C142.472 29.3353 142.545 29.5171 142.636 29.6762L148.057 22.483Z" fill="#16192C"/>
<path d="M161.437 36.5455H156.75V11.0284H161.437V36.5455Z" fill="#16192C"/>
<path d="M169.687 43.5H165V18.2898H166.125L167.983 20.4887C168.403 20.0909 168.864 19.7159 169.364 19.3637C169.864 19.0114 170.381 18.7102 170.915 18.4602C171.46 18.1989 172.023 17.9943 172.602 17.8466C173.182 17.6989 173.767 17.625 174.358 17.625C175.642 17.625 176.847 17.858 177.972 18.3239C179.108 18.7784 180.097 19.4262 180.937 20.2671C181.79 21.108 182.46 22.125 182.949 23.3182C183.437 24.5 183.682 25.8125 183.682 27.2557C183.682 28.7557 183.437 30.108 182.949 31.3125C182.46 32.5057 181.79 33.5228 180.937 34.3637C180.097 35.1932 179.108 35.8296 177.972 36.2728C176.847 36.7159 175.642 36.9375 174.358 36.9375C173.949 36.9375 173.54 36.8921 173.131 36.8012C172.733 36.7103 172.335 36.5909 171.937 36.4432C171.551 36.2841 171.165 36.108 170.778 35.9148C170.403 35.7216 170.04 35.5228 169.687 35.3182V43.5ZM179.011 27.2557C179.011 26.483 178.886 25.7898 178.636 25.1762C178.398 24.5625 178.068 24.0455 177.648 23.625C177.227 23.1932 176.733 22.8637 176.165 22.6364C175.597 22.4091 174.994 22.2955 174.358 22.2955C173.722 22.2955 173.119 22.4091 172.551 22.6364C171.994 22.8637 171.506 23.1932 171.085 23.625C170.665 24.0455 170.329 24.5625 170.079 25.1762C169.841 25.7898 169.722 26.483 169.722 27.2557C169.722 27.9943 169.841 28.6705 170.079 29.2841C170.329 29.8978 170.665 30.4205 171.085 30.8523C171.506 31.2841 171.994 31.6193 172.551 31.858C173.119 32.0966 173.722 32.2159 174.358 32.2159C174.994 32.2159 175.597 32.0966 176.165 31.858C176.733 31.6193 177.227 31.2841 177.648 30.8523C178.068 30.4205 178.398 29.8978 178.636 29.2841C178.886 28.6705 179.011 27.9943 179.011 27.2557Z" fill="#16192C"/>
<defs>
<clipPath id="clip0_162_3588">
<rect width="48.142" height="48" fill="white" transform="translate(0.71582)"/>
</clipPath>
</defs>
</svg>
